# Blender v2.72 (sub 0) OBJ File: 'ORAS Map Lighting.blend'
# www.blender.org
mtllib 154.mtl
o kakureon
v -0.126507 0.049144 0.042841
v -0.098544 0.032961 0.092182
v -0.146384 0.012465 0.073415
v -0.098544 0.032961 0.092182
v -0.198658 0.003084 0.140948
v -0.146384 0.012465 0.073415
v -0.098544 0.032961 0.092182
v -0.102588 0.096630 0.129798
v -0.149810 0.050985 0.175358
v -0.098544 0.032961 0.092182
v -0.149810 0.050985 0.175358
v -0.198658 0.003084 0.140948
v -0.102588 0.096630 0.129798
v -0.155506 0.129438 0.183299
v -0.149810 0.050985 0.175358
v -0.198658 0.003084 0.140948
v -0.149810 0.050985 0.175358
v -0.239181 0.014942 0.195692
v -0.102588 0.096630 0.129798
v -0.132765 0.159904 0.114865
v -0.155506 0.129438 0.183299
v -0.149810 0.050985 0.175358
v -0.155506 0.129438 0.183299
v -0.203248 0.077398 0.240659
v -0.149810 0.050985 0.175358
v -0.203248 0.077398 0.240659
v -0.239181 0.014942 0.195692
v -0.132765 0.159904 0.114865
v -0.204351 0.176125 0.150126
v -0.155506 0.129438 0.183299
v -0.203248 0.077398 0.240659
v -0.246561 0.142737 0.207145
v -0.245773 0.087425 0.247378
v -0.155506 0.129438 0.183299
v -0.204351 0.176125 0.150126
v -0.246561 0.142737 0.207145
v -0.155506 0.129438 0.183299
v -0.246561 0.142737 0.207145
v -0.203248 0.077398 0.240659
v -0.239181 0.014942 0.195692
v -0.203248 0.077398 0.240659
v -0.255690 0.036856 0.223267
v -0.255690 0.036856 0.223267
v -0.203248 0.077398 0.240659
v -0.245773 0.087425 0.247378
v -0.132765 0.159904 0.114865
v -0.160709 0.179467 0.064836
v -0.204351 0.176125 0.150126
v -0.246561 0.142737 0.207145
v -0.270041 0.116206 0.237612
v -0.245773 0.087425 0.247378
v -0.160709 0.179467 0.064836
v -0.233653 0.160416 0.073679
v -0.204351 0.176125 0.150126
v -0.246561 0.142737 0.207145
v -0.273083 0.135522 0.137532
v -0.270041 0.116206 0.237612
v -0.204351 0.176125 0.150126
v -0.233653 0.160416 0.073679
v -0.273083 0.135522 0.137532
v -0.204351 0.176125 0.150126
v -0.273083 0.135522 0.137532
v -0.246561 0.142737 0.207145
v -0.160709 0.179467 0.064836
v -0.152204 0.113029 0.025589
v -0.233653 0.160416 0.073679
v -0.270041 0.116206 0.237612
v -0.273083 0.135522 0.137532
v -0.308630 0.075282 0.187836
v -0.152204 0.113029 0.025589
v -0.206849 0.038475 0.046659
v -0.239773 0.103874 0.044226
v -0.233653 0.160416 0.073679
v -0.292909 0.094013 0.109136
v -0.273083 0.135522 0.137532
v -0.239773 0.103874 0.044226
v -0.233653 0.160416 0.073679
v -0.152204 0.113029 0.025589
v -0.239773 0.103874 0.044226
v -0.206849 0.038475 0.046659
v -0.292909 0.094013 0.109136
v -0.239773 0.103874 0.044226
v -0.292909 0.094013 0.109136
v -0.233653 0.160416 0.073679
v -0.273083 0.135522 0.137532
v -0.292909 0.094013 0.109136
v -0.308630 0.075282 0.187836
v -0.270041 0.116206 0.237612
v -0.308630 0.075282 0.187836
v -0.284212 0.073989 0.221753
v -0.152204 0.113029 0.025589
v -0.126507 0.049144 0.042841
v -0.206849 0.038475 0.046659
v -0.292909 0.094013 0.109136
v -0.253280 0.028456 0.119178
v -0.308630 0.075282 0.187836
v -0.292909 0.094013 0.109136
v -0.206849 0.038475 0.046659
v -0.253280 0.028456 0.119178
v -0.284212 0.073989 0.221753
v -0.308630 0.075282 0.187836
v -0.255690 0.036856 0.223267
v -0.126507 0.049144 0.042841
v -0.146384 0.012465 0.073415
v -0.206849 0.038475 0.046659
v -0.206849 0.038475 0.046659
v -0.146384 0.012465 0.073415
v -0.253280 0.028456 0.119178
v -0.308630 0.075282 0.187836
v -0.253280 0.028456 0.119178
v -0.239181 0.014942 0.195692
v -0.308630 0.075282 0.187836
v -0.239181 0.014942 0.195692
v -0.255690 0.036856 0.223267
v -0.146384 0.012465 0.073415
v -0.198658 0.003084 0.140948
v -0.253280 0.028456 0.119178
v -0.253280 0.028456 0.119178
v -0.198658 0.003084 0.140948
v -0.239181 0.014942 0.195692
v -0.270041 0.116206 0.237612
v -0.284212 0.073989 0.221753
v -0.289977 0.139058 0.258506
v -0.284212 0.073989 0.221753
v -0.295971 0.029191 0.234935
v -0.316660 0.106376 0.246749
v -0.289977 0.139058 0.258506
v -0.316660 0.106376 0.246749
v -0.272010 0.106005 0.278774
v -0.284212 0.073989 0.221753
v -0.255690 0.036856 0.223267
v -0.295971 0.029191 0.234935
v -0.284212 0.073989 0.221753
v -0.316660 0.106376 0.246749
v -0.289977 0.139058 0.258506
v -0.272010 0.106005 0.278774
v -0.277288 0.036050 0.269101
v -0.241877 0.051027 0.262500
v -0.316660 0.106376 0.246749
v -0.295971 0.029191 0.234935
v -0.277288 0.036050 0.269101
v -0.316660 0.106376 0.246749
v -0.277288 0.036050 0.269101
v -0.272010 0.106005 0.278774
v -0.255690 0.036856 0.223267
v -0.256152 0.013311 0.241130
v -0.295971 0.029191 0.234935
v -0.277288 0.036050 0.269101
v -0.256152 0.013311 0.241130
v -0.241877 0.051027 0.262500
v -0.277288 0.036050 0.269101
v -0.295971 0.029191 0.234935
v -0.256152 0.013311 0.241130
v -0.289977 0.139058 0.258506
v -0.272010 0.106005 0.278774
v -0.245773 0.087425 0.247378
v -0.272010 0.106005 0.278774
v -0.241877 0.051027 0.262500
v -0.245773 0.087425 0.247378
v -0.256152 0.013311 0.241130
v -0.255690 0.036856 0.223267
v -0.241877 0.051027 0.262500
v -0.241877 0.051027 0.262500
v -0.255690 0.036856 0.223267
v -0.245773 0.087425 0.247378
v -0.289977 0.139058 0.258506
v -0.245773 0.087425 0.247378
v -0.270041 0.116206 0.237612
v -0.149962 0.234359 0.029633
v -0.206618 0.217573 0.038690
v -0.143431 0.252545 -0.003924
v -0.206618 0.217573 0.038690
v -0.207725 0.257605 -0.015656
v -0.143431 0.252545 -0.003924
v -0.206618 0.217573 0.038690
v -0.280320 0.198206 0.044797
v -0.207725 0.257605 -0.015656
v -0.143431 0.252545 -0.003924
v -0.207725 0.257605 -0.015656
v -0.117242 0.290598 -0.021389
v -0.280320 0.198206 0.044797
v -0.282406 0.233755 0.003969
v -0.207725 0.257605 -0.015656
v -0.117242 0.290598 -0.021389
v -0.158605 0.317652 -0.002456
v -0.090401 0.333183 -0.008776
v -0.117242 0.290598 -0.021389
v -0.207725 0.257605 -0.015656
v -0.158605 0.317652 -0.002456
v -0.280320 0.198206 0.044797
v -0.322279 0.202559 0.051097
v -0.282406 0.233755 0.003969
v -0.090401 0.333183 -0.008776
v -0.151400 0.325863 0.038745
v -0.095216 0.334607 0.051100
v -0.090401 0.333183 -0.008776
v -0.158605 0.317652 -0.002456
v -0.151400 0.325863 0.038745
v -0.207725 0.257605 -0.015656
v -0.223321 0.289052 0.008853
v -0.158605 0.317652 -0.002456
v -0.207725 0.257605 -0.015656
v -0.282406 0.233755 0.003969
v -0.223321 0.289052 0.008853
v -0.322279 0.202559 0.051097
v -0.330592 0.225773 0.036529
v -0.282406 0.233755 0.003969
v -0.095216 0.334607 0.051100
v -0.151400 0.325863 0.038745
v -0.120242 0.308014 0.061678
v -0.158605 0.317652 -0.002456
v -0.227976 0.298802 0.047988
v -0.151400 0.325863 0.038745
v -0.151400 0.325863 0.038745
v -0.227976 0.298802 0.047988
v -0.120242 0.308014 0.061678
v -0.158605 0.317652 -0.002456
v -0.223321 0.289052 0.008853
v -0.227976 0.298802 0.047988
v -0.322279 0.202559 0.051097
v -0.341093 0.223851 0.051848
v -0.330592 0.225773 0.036529
v -0.282406 0.233755 0.003969
v -0.298442 0.262294 0.024367
v -0.223321 0.289052 0.008853
v -0.223321 0.289052 0.008853
v -0.298442 0.262294 0.024367
v -0.227976 0.298802 0.047988
v -0.282406 0.233755 0.003969
v -0.330592 0.225773 0.036529
v -0.298442 0.262294 0.024367
v -0.120242 0.308014 0.061678
v -0.207018 0.262603 0.068556
v -0.144259 0.261263 0.062568
v -0.120242 0.308014 0.061678
v -0.227976 0.298802 0.047988
v -0.207018 0.262603 0.068556
v -0.341093 0.223851 0.051848
v -0.322279 0.202559 0.051097
v -0.326707 0.222097 0.072069
v -0.330592 0.225773 0.036529
v -0.334938 0.244067 0.049098
v -0.298442 0.262294 0.024367
v -0.341093 0.223851 0.051848
v -0.334938 0.244067 0.049098
v -0.330592 0.225773 0.036529
v -0.341093 0.223851 0.051848
v -0.326707 0.222097 0.072069
v -0.334938 0.244067 0.049098
v -0.144259 0.261263 0.062568
v -0.207018 0.262603 0.068556
v -0.206618 0.217573 0.038690
v -0.227976 0.298802 0.047988
v -0.298442 0.262294 0.024367
v -0.304684 0.268757 0.056214
v -0.334938 0.244067 0.049098
v -0.326707 0.222097 0.072069
v -0.304684 0.268757 0.056214
v -0.334938 0.244067 0.049098
v -0.304684 0.268757 0.056214
v -0.298442 0.262294 0.024367
v -0.227976 0.298802 0.047988
v -0.304684 0.268757 0.056214
v -0.207018 0.262603 0.068556
v -0.322279 0.202559 0.051097
v -0.280320 0.198206 0.044797
v -0.326707 0.222097 0.072069
v -0.144259 0.261263 0.062568
v -0.206618 0.217573 0.038690
v -0.149962 0.234359 0.029633
v -0.304684 0.268757 0.056214
v -0.294851 0.231219 0.075414
v -0.207018 0.262603 0.068556
v -0.294851 0.231219 0.075414
v -0.280320 0.198206 0.044797
v -0.206618 0.217573 0.038690
v -0.294851 0.231219 0.075414
v -0.304684 0.268757 0.056214
v -0.326707 0.222097 0.072069
v -0.294851 0.231219 0.075414
v -0.206618 0.217573 0.038690
v -0.207018 0.262603 0.068556
v -0.294851 0.231219 0.075414
v -0.326707 0.222097 0.072069
v -0.280320 0.198206 0.044797
v -0.072774 0.783104 0.140192
v -0.129452 0.886032 0.092444
v -0.117482 0.778999 0.129577
v -0.129452 0.886032 0.092444
v -0.161036 0.870456 0.088165
v -0.117482 0.778999 0.129577
v -0.129452 0.886032 0.092444
v -0.162560 0.966614 0.046897
v -0.161036 0.870456 0.088165
v -0.117482 0.778999 0.129577
v -0.161036 0.870456 0.088165
v -0.167523 0.767832 0.093584
v -0.162560 0.966614 0.046897
v -0.206444 1.077069 -0.020757
v -0.193246 0.957693 0.045171
v -0.162560 0.966614 0.046897
v -0.193246 0.957693 0.045171
v -0.161036 0.870456 0.088165
v -0.167523 0.767832 0.093584
v -0.161036 0.870456 0.088165
v -0.201750 0.856041 0.046582
v -0.161036 0.870456 0.088165
v -0.193246 0.957693 0.045171
v -0.201750 0.856041 0.046582
v -0.206444 1.077069 -0.020757
v -0.232586 0.953361 -0.084078
v -0.226398 0.958158 0.006486
v -0.193246 0.957693 0.045171
v -0.206444 1.077069 -0.020757
v -0.226398 0.958158 0.006486
v -0.193246 0.957693 0.045171
v -0.226398 0.958158 0.006486
v -0.201750 0.856041 0.046582
v -0.167523 0.767832 0.093584
v -0.201750 0.856041 0.046582
v -0.189478 0.730470 0.014311
v -0.232586 0.953361 -0.084078
v -0.242236 0.997804 -0.187212
v -0.229165 0.871859 -0.190580
v -0.206444 1.077069 -0.020757
v -0.184774 0.969795 -0.095305
v -0.232586 0.953361 -0.084078
v -0.184774 0.969795 -0.095305
v -0.242236 0.997804 -0.187212
v -0.232586 0.953361 -0.084078
v -0.226398 0.958158 0.006486
v -0.219268 0.749089 -0.087950
v -0.201750 0.856041 0.046582
v -0.232586 0.953361 -0.084078
v -0.229165 0.871859 -0.190580
v -0.219268 0.749089 -0.087950
v -0.232586 0.953361 -0.084078
v -0.219268 0.749089 -0.087950
v -0.226398 0.958158 0.006486
v -0.201750 0.856041 0.046582
v -0.219268 0.749089 -0.087950
v -0.189478 0.730470 0.014311
v -0.242236 0.997804 -0.187212
v -0.205372 0.891673 -0.205880
v -0.229165 0.871859 -0.190580
v -0.219268 0.749089 -0.087950
v -0.229165 0.871859 -0.190580
v -0.190333 0.768965 -0.245722
v -0.189478 0.730470 0.014311
v -0.219268 0.749089 -0.087950
v -0.206362 0.688107 -0.082078
v -0.205372 0.891673 -0.205880
v -0.210619 0.862649 -0.306877
v -0.229165 0.871859 -0.190580
v -0.229165 0.871859 -0.190580
v -0.210619 0.862649 -0.306877
v -0.190333 0.768965 -0.245722
v -0.219268 0.749089 -0.087950
v -0.190333 0.768965 -0.245722
v -0.161629 0.662169 -0.177805
v -0.219268 0.749089 -0.087950
v -0.161629 0.662169 -0.177805
v -0.206362 0.688107 -0.082078
v -0.210619 0.862649 -0.306877
v -0.156608 0.780327 -0.270794
v -0.190333 0.768965 -0.245722
v -0.161629 0.662169 -0.177805
v -0.084659 0.546951 -0.247862
v -0.104869 0.556298 -0.207159
v -0.206362 0.688107 -0.082078
v -0.161629 0.662169 -0.177805
v -0.156175 0.618190 -0.159170
v -0.156175 0.618190 -0.159170
v -0.161629 0.662169 -0.177805
v -0.104869 0.556298 -0.207159
v -0.156608 0.780327 -0.270794
v -0.127122 0.738542 -0.384513
v -0.190333 0.768965 -0.245722
v -0.084659 0.546951 -0.247862
v 0.000000 0.463227 -0.255503
v -0.038731 0.477000 -0.237248
v -0.104869 0.556298 -0.207159
v -0.084659 0.546951 -0.247862
v -0.038731 0.477000 -0.237248
v -0.161629 0.662169 -0.177805
v -0.151748 0.662402 -0.256207
v -0.084659 0.546951 -0.247862
v -0.190333 0.768965 -0.245722
v -0.127122 0.738542 -0.384513
v -0.151748 0.662402 -0.256207
v -0.190333 0.768965 -0.245722
v -0.151748 0.662402 -0.256207
v -0.161629 0.662169 -0.177805
v 0.000000 0.463227 -0.255503
v -0.084659 0.546951 -0.247862
v 0.000000 0.498103 -0.256506
v -0.038731 0.477000 -0.237248
v 0.000000 0.463227 -0.255503
v 0.000000 0.434006 -0.247641
v -0.127122 0.738542 -0.384513
v -0.092082 0.649679 -0.292255
v -0.121143 0.646271 -0.286614
v -0.151748 0.662402 -0.256207
v -0.127122 0.738542 -0.384513
v -0.121143 0.646271 -0.286614
v -0.151748 0.662402 -0.256207
v -0.121143 0.646271 -0.286614
v -0.084659 0.546951 -0.247862
v 0.000000 0.498103 -0.256506
v -0.084659 0.546951 -0.247862
v -0.043560 0.553767 -0.259143
v 0.000000 0.463227 -0.255503
v 0.084659 0.546951 -0.247862
v 0.038731 0.477000 -0.237248
v 0.000000 0.463227 -0.255503
v 0.038731 0.477000 -0.237248
v 0.000000 0.434006 -0.247641
v 0.000000 0.463227 -0.255503
v 0.000000 0.498103 -0.256506
v 0.084659 0.546951 -0.247862
v -0.092082 0.649679 -0.292255
v -0.056345 0.571481 -0.366836
v -0.121143 0.646271 -0.286614
v -0.056345 0.571481 -0.366836
v -0.084659 0.546951 -0.247862
v -0.121143 0.646271 -0.286614
v -0.084659 0.546951 -0.247862
v -0.056345 0.571481 -0.366836
v -0.043560 0.553767 -0.259143
v 0.038731 0.477000 -0.237248
v 0.084659 0.546951 -0.247862
v 0.104869 0.556298 -0.207159
v 0.000000 0.498103 -0.256506
v 0.043560 0.553767 -0.259143
v 0.084659 0.546951 -0.247862
v 0.104869 0.556298 -0.207159
v 0.084659 0.546951 -0.247862
v 0.161629 0.662169 -0.177805
v 0.043560 0.553767 -0.259143
v 0.056345 0.571481 -0.366836
v 0.084659 0.546951 -0.247862
v 0.104869 0.556298 -0.207159
v 0.161629 0.662169 -0.177805
v 0.156175 0.618190 -0.159170
v 0.056345 0.571481 -0.366836
v 0.121143 0.646271 -0.286614
v 0.084659 0.546951 -0.247862
v 0.161629 0.662169 -0.177805
v 0.190333 0.768965 -0.245722
v 0.219268 0.749089 -0.087950
v 0.156175 0.618190 -0.159170
v 0.161629 0.662169 -0.177805
v 0.206362 0.688107 -0.082078
v 0.056345 0.571481 -0.366836
v 0.092082 0.649679 -0.292255
v 0.121143 0.646271 -0.286614
v 0.084659 0.546951 -0.247862
v 0.151748 0.662402 -0.256207
v 0.161629 0.662169 -0.177805
v 0.161629 0.662169 -0.177805
v 0.151748 0.662402 -0.256207
v 0.190333 0.768965 -0.245722
v 0.161629 0.662169 -0.177805
v 0.219268 0.749089 -0.087950
v 0.206362 0.688107 -0.082078
v 0.084659 0.546951 -0.247862
v 0.121143 0.646271 -0.286614
v 0.151748 0.662402 -0.256207
v 0.092082 0.649679 -0.292255
v 0.127122 0.738542 -0.384513
v 0.121143 0.646271 -0.286614
v 0.151748 0.662402 -0.256207
v 0.127122 0.738542 -0.384513
v 0.190333 0.768965 -0.245722
v 0.151748 0.662402 -0.256207
v 0.121143 0.646271 -0.286614
v 0.127122 0.738542 -0.384513
v 0.219268 0.749089 -0.087950
v 0.190333 0.768965 -0.245722
v 0.229165 0.871859 -0.190580
v 0.206362 0.688107 -0.082078
v 0.219268 0.749089 -0.087950
v 0.189478 0.730470 0.014311
v 0.127122 0.738542 -0.384513
v 0.156608 0.780327 -0.270794
v 0.190333 0.768965 -0.245722
v 0.229165 0.871859 -0.190580
v 0.242236 0.997804 -0.187212
v 0.232586 0.953361 -0.084078
v 0.219268 0.749089 -0.087950
v 0.229165 0.871859 -0.190580
v 0.232586 0.953361 -0.084078
v 0.189478 0.730470 0.014311
v 0.219268 0.749089 -0.087950
v 0.201750 0.856041 0.046582
v 0.156608 0.780327 -0.270794
v 0.210619 0.862649 -0.306877
v 0.190333 0.768965 -0.245722
v 0.190333 0.768965 -0.245722
v 0.210619 0.862649 -0.306877
v 0.229165 0.871859 -0.190580
v 0.242236 0.997804 -0.187212
v 0.184774 0.969795 -0.095305
v 0.232586 0.953361 -0.084078
v 0.189478 0.730470 0.014311
v 0.201750 0.856041 0.046582
v 0.167523 0.767832 0.093584
v 0.219268 0.749089 -0.087950
v 0.226398 0.958158 0.006486
v 0.201750 0.856041 0.046582
v 0.219268 0.749089 -0.087950
v 0.232586 0.953361 -0.084078
v 0.226398 0.958158 0.006486
v 0.210619 0.862649 -0.306877
v 0.205372 0.891673 -0.205880
v 0.229165 0.871859 -0.190580
v 0.229165 0.871859 -0.190580
v 0.205372 0.891673 -0.205880
v 0.242236 0.997804 -0.187212
v 0.184774 0.969795 -0.095305
v 0.206444 1.077069 -0.020757
v 0.232586 0.953361 -0.084078
v 0.232586 0.953361 -0.084078
v 0.206444 1.077069 -0.020757
v 0.226398 0.958158 0.006486
v 0.167523 0.767832 0.093584
v 0.201750 0.856041 0.046582
v 0.161036 0.870456 0.088165
v 0.206444 1.077069 -0.020757
v 0.162560 0.966614 0.046897
v 0.193246 0.957693 0.045171
v 0.193246 0.957693 0.045171
v 0.226398 0.958158 0.006486
v 0.206444 1.077069 -0.020757
v 0.193246 0.957693 0.045171
v 0.201750 0.856041 0.046582
v 0.226398 0.958158 0.006486
v 0.193246 0.957693 0.045171
v 0.162560 0.966614 0.046897
v 0.161036 0.870456 0.088165
v 0.193246 0.957693 0.045171
v 0.161036 0.870456 0.088165
v 0.201750 0.856041 0.046582
v 0.167523 0.767832 0.093584
v 0.161036 0.870456 0.088165
v 0.117482 0.778999 0.129577
v 0.162560 0.966614 0.046897
v 0.129452 0.886032 0.092444
v 0.161036 0.870456 0.088165
v 0.161036 0.870456 0.088165
v 0.129452 0.886032 0.092444
v 0.117482 0.778999 0.129577
v 0.129452 0.886032 0.092444
v 0.072774 0.783104 0.140192
v 0.117482 0.778999 0.129577
v -0.210619 0.862649 -0.306877
v -0.205372 0.891673 -0.205880
v -0.156608 0.780327 -0.270794
v -0.205372 0.891673 -0.205880
v -0.242236 0.997804 -0.187212
v -0.184774 0.969795 -0.095305
v -0.156608 0.780327 -0.270794
v -0.127663 0.748525 -0.087756
v -0.061538 0.641090 -0.206696
v -0.205372 0.891673 -0.205880
v -0.184774 0.969795 -0.095305
v -0.127663 0.748525 -0.087756
v -0.205372 0.891673 -0.205880
v -0.127663 0.748525 -0.087756
v -0.156608 0.780327 -0.270794
v -0.061538 0.641090 -0.206696
v 0.000000 0.743363 -0.141888
v 0.000000 0.645494 -0.223648
v -0.184774 0.969795 -0.095305
v -0.206444 1.077069 -0.020757
v -0.162560 0.966614 0.046897
v -0.127663 0.748525 -0.087756
v 0.000000 0.817338 -0.005890
v 0.000000 0.743363 -0.141888
v -0.156608 0.780327 -0.270794
v -0.061538 0.641090 -0.206696
v -0.092082 0.649679 -0.292255
v 0.000000 0.645494 -0.223648
v 0.000000 0.544012 -0.263196
v -0.061538 0.641090 -0.206696
v -0.184774 0.969795 -0.095305
v -0.129452 0.886032 0.092444
v -0.102908 0.801240 0.038636
v -0.127663 0.748525 -0.087756
v 0.000000 0.743363 -0.141888
v -0.061538 0.641090 -0.206696
v -0.127663 0.748525 -0.087756
v -0.102908 0.801240 0.038636
v 0.000000 0.817338 -0.005890
v -0.184774 0.969795 -0.095305
v -0.162560 0.966614 0.046897
v -0.129452 0.886032 0.092444
v -0.184774 0.969795 -0.095305
v -0.102908 0.801240 0.038636
v -0.127663 0.748525 -0.087756
v -0.156608 0.780327 -0.270794
v -0.092082 0.649679 -0.292255
v -0.127122 0.738542 -0.384513
v 0.000000 0.645494 -0.223648
v 0.000000 0.743363 -0.141888
v 0.061538 0.641090 -0.206696
v 0.000000 0.645494 -0.223648
v 0.061538 0.641090 -0.206696
v 0.000000 0.544012 -0.263196
v -0.061538 0.641090 -0.206696
v 0.000000 0.544012 -0.263196
v -0.043560 0.553767 -0.259143
v -0.061538 0.641090 -0.206696
v -0.043560 0.553767 -0.259143
v -0.092082 0.649679 -0.292255
v 0.000000 0.817338 -0.005890
v -0.102908 0.801240 0.038636
v 0.000000 0.812171 0.109528
v -0.129452 0.886032 0.092444
v -0.072774 0.783104 0.140192
v -0.102908 0.801240 0.038636
v -0.102908 0.801240 0.038636
v -0.072774 0.783104 0.140192
v 0.000000 0.812171 0.109528
v 0.000000 0.743363 -0.141888
v 0.000000 0.817338 -0.005890
v 0.127663 0.748525 -0.087756
v 0.000000 0.743363 -0.141888
v 0.127663 0.748525 -0.087756
v 0.061538 0.641090 -0.206696
v 0.000000 0.544012 -0.263196
v 0.000000 0.498103 -0.256506
v -0.043560 0.553767 -0.259143
v -0.092082 0.649679 -0.292255
v -0.043560 0.553767 -0.259143
v -0.056345 0.571481 -0.366836
v -0.072774 0.783104 0.140192
v 0.000000 0.789395 0.170240
v 0.000000 0.812171 0.109528
v 0.000000 0.817338 -0.005890
v 0.000000 0.812171 0.109528
v 0.102908 0.801240 0.038636
v 0.000000 0.817338 -0.005890
v 0.102908 0.801240 0.038636
v 0.127663 0.748525 -0.087756
v 0.061538 0.641090 -0.206696
v 0.043560 0.553767 -0.259143
v 0.000000 0.544012 -0.263196
v 0.000000 0.544012 -0.263196
v 0.043560 0.553767 -0.259143
v 0.000000 0.498103 -0.256506
v 0.000000 0.789395 0.170240
v 0.072774 0.783104 0.140192
v 0.000000 0.812171 0.109528
v 0.000000 0.812171 0.109528
v 0.072774 0.783104 0.140192
v 0.102908 0.801240 0.038636
v 0.127663 0.748525 -0.087756
v 0.184774 0.969795 -0.095305
v 0.205372 0.891673 -0.205880
v 0.061538 0.641090 -0.206696
v 0.127663 0.748525 -0.087756
v 0.156608 0.780327 -0.270794
v 0.127663 0.748525 -0.087756
v 0.102908 0.801240 0.038636
v 0.184774 0.969795 -0.095305
v 0.127663 0.748525 -0.087756
v 0.205372 0.891673 -0.205880
v 0.156608 0.780327 -0.270794
v 0.043560 0.553767 -0.259143
v 0.061538 0.641090 -0.206696
v 0.092082 0.649679 -0.292255
v 0.061538 0.641090 -0.206696
v 0.156608 0.780327 -0.270794
v 0.092082 0.649679 -0.292255
v 0.072774 0.783104 0.140192
v 0.129452 0.886032 0.092444
v 0.102908 0.801240 0.038636
v 0.102908 0.801240 0.038636
v 0.129452 0.886032 0.092444
v 0.184774 0.969795 -0.095305
v 0.205372 0.891673 -0.205880
v 0.210619 0.862649 -0.306877
v 0.156608 0.780327 -0.270794
v 0.043560 0.553767 -0.259143
v 0.092082 0.649679 -0.292255
v 0.056345 0.571481 -0.366836
v 0.129452 0.886032 0.092444
v 0.162560 0.966614 0.046897
v 0.184774 0.969795 -0.095305
v 0.205372 0.891673 -0.205880
v 0.184774 0.969795 -0.095305
v 0.242236 0.997804 -0.187212
v 0.156608 0.780327 -0.270794
v 0.127122 0.738542 -0.384513
v 0.092082 0.649679 -0.292255
v 0.162560 0.966614 0.046897
v 0.206444 1.077069 -0.020757
v 0.184774 0.969795 -0.095305
v -0.004175 0.311985 -0.070727
v -0.081732 0.258301 -0.090138
v -0.090401 0.333183 -0.008776
v -0.081732 0.258301 -0.090138
v -0.081732 0.189999 -0.105440
v -0.132783 0.195064 -0.046928
v -0.090401 0.333183 -0.008776
v -0.081732 0.258301 -0.090138
v -0.117242 0.290598 -0.021389
v -0.081732 0.258301 -0.090138
v -0.132783 0.195064 -0.046928
v -0.117242 0.290598 -0.021389
v -0.081732 0.189999 -0.105440
v -0.131131 0.122333 -0.047017
v -0.132783 0.195064 -0.046928
v -0.117242 0.290598 -0.021389
v -0.132783 0.195064 -0.046928
v -0.143431 0.252545 -0.003924
v -0.081732 0.189999 -0.105440
v -0.081732 0.116182 -0.102234
v -0.131131 0.122333 -0.047017
v -0.132783 0.195064 -0.046928
v -0.149962 0.234359 0.029633
v -0.143431 0.252545 -0.003924
v -0.081732 0.116182 -0.102234
v 0.000000 0.055107 -0.078903
v -0.091717 0.053678 -0.050656
v -0.081732 0.116182 -0.102234
v -0.091717 0.053678 -0.050656
v -0.131131 0.122333 -0.047017
v -0.132783 0.195064 -0.046928
v -0.131131 0.122333 -0.047017
v -0.160709 0.179467 0.064836
v -0.132783 0.195064 -0.046928
v -0.160709 0.179467 0.064836
v -0.149962 0.234359 0.029633
v 0.000000 0.055107 -0.078903
v 0.000000 0.026530 -0.049287
v -0.091717 0.053678 -0.050656
v -0.131131 0.122333 -0.047017
v -0.126507 0.049144 0.042841
v -0.152204 0.113029 0.025589
v -0.131131 0.122333 -0.047017
v -0.152204 0.113029 0.025589
v -0.160709 0.179467 0.064836
v -0.131131 0.122333 -0.047017
v -0.091717 0.053678 -0.050656
v -0.126507 0.049144 0.042841
v -0.149962 0.234359 0.029633
v -0.160709 0.179467 0.064836
v -0.144259 0.261263 0.062568
v 0.000000 0.055107 -0.078903
v 0.081732 0.116182 -0.102234
v 0.091717 0.053678 -0.050656
v 0.000000 0.055107 -0.078903
v 0.091717 0.053678 -0.050656
v 0.000000 0.026530 -0.049287
v -0.091717 0.053678 -0.050656
v 0.000000 0.026530 -0.049287
v 0.000000 0.006175 -0.007243
v 0.000000 0.026530 -0.049287
v 0.091717 0.053678 -0.050656
v 0.000000 0.006175 -0.007243
v -0.126507 0.049144 0.042841
v -0.091717 0.053678 -0.050656
v -0.056623 0.007958 0.046984
v -0.091717 0.053678 -0.050656
v 0.000000 0.006175 -0.007243
v -0.056623 0.007958 0.046984
v -0.160709 0.179467 0.064836
v -0.132765 0.159904 0.114865
v -0.144259 0.261263 0.062568
v 0.081732 0.116182 -0.102234
v 0.081732 0.189999 -0.105440
v 0.131131 0.122333 -0.047017
v 0.081732 0.116182 -0.102234
v 0.131131 0.122333 -0.047017
v 0.091717 0.053678 -0.050656
v -0.126507 0.049144 0.042841
v -0.056623 0.007958 0.046984
v -0.098544 0.032961 0.092182
v 0.000000 0.006175 -0.007243
v 0.000000 0.002537 0.052565
v -0.056623 0.007958 0.046984
v -0.132765 0.159904 0.114865
v -0.071464 0.225872 0.153564
v -0.117785 0.241326 0.113905
v -0.144259 0.261263 0.062568
v -0.132765 0.159904 0.114865
v -0.117785 0.241326 0.113905
v 0.081732 0.189999 -0.105440
v 0.132783 0.195064 -0.046928
v 0.131131 0.122333 -0.047017
v 0.091717 0.053678 -0.050656
v 0.126507 0.049144 0.042841
v 0.056623 0.007958 0.046984
v 0.091717 0.053678 -0.050656
v 0.056623 0.007958 0.046984
v 0.000000 0.006175 -0.007243
v 0.000000 0.006175 -0.007243
v 0.056623 0.007958 0.046984
v 0.000000 0.002537 0.052565
v 0.091717 0.053678 -0.050656
v 0.131131 0.122333 -0.047017
v 0.126507 0.049144 0.042841
v -0.098544 0.032961 0.092182
v -0.055597 0.026446 0.118934
v -0.055316 0.079827 0.161367
v -0.056623 0.007958 0.046984
v 0.000000 0.002537 0.052565
v 0.000000 0.017575 0.128348
v -0.055597 0.026446 0.118934
v -0.098544 0.032961 0.092182
v -0.056623 0.007958 0.046984
v -0.055597 0.026446 0.118934
v 0.000000 0.017575 0.128348
v -0.055316 0.079827 0.161367
v -0.055597 0.026446 0.118934
v -0.056623 0.007958 0.046984
v 0.000000 0.017575 0.128348
v 0.000000 0.002537 0.052565
v 0.056623 0.007958 0.046984
v 0.000000 0.017575 0.128348
v -0.071464 0.225872 0.153564
v -0.067812 0.303459 0.105712
v -0.117785 0.241326 0.113905
v -0.144259 0.261263 0.062568
v -0.117785 0.241326 0.113905
v -0.120242 0.308014 0.061678
v -0.117785 0.241326 0.113905
v -0.067812 0.303459 0.105712
v -0.120242 0.308014 0.061678
v -0.132765 0.159904 0.114865
v -0.102588 0.096630 0.129798
v -0.068778 0.143481 0.168025
v -0.102588 0.096630 0.129798
v -0.098544 0.032961 0.092182
v -0.055316 0.079827 0.161367
v -0.102588 0.096630 0.129798
v -0.055316 0.079827 0.161367
v -0.068778 0.143481 0.168025
v -0.132765 0.159904 0.114865
v -0.068778 0.143481 0.168025
v -0.071464 0.225872 0.153564
v 0.081732 0.189999 -0.105440
v 0.081732 0.258301 -0.090138
v 0.132783 0.195064 -0.046928
v 0.131131 0.122333 -0.047017
v 0.152204 0.113029 0.025589
v 0.126507 0.049144 0.042841
v 0.056623 0.007958 0.046984
v 0.126507 0.049144 0.042841
v 0.098544 0.032961 0.092182
v 0.000000 0.017575 0.128348
v 0.000000 0.076866 0.175351
v -0.055316 0.079827 0.161367
v -0.067812 0.303459 0.105712
v -0.095216 0.334607 0.051100
v -0.120242 0.308014 0.061678
v -0.068778 0.143481 0.168025
v -0.055316 0.079827 0.161367
v 0.000000 0.147229 0.191529
v -0.055316 0.079827 0.161367
v 0.000000 0.076866 0.175351
v 0.000000 0.147229 0.191529
v -0.068778 0.143481 0.168025
v 0.000000 0.147229 0.191529
v -0.071464 0.225872 0.153564
v 0.081732 0.258301 -0.090138
v 0.117242 0.290598 -0.021389
v 0.132783 0.195064 -0.046928
v 0.131131 0.122333 -0.047017
v 0.160709 0.179467 0.064836
v 0.152204 0.113029 0.025589
v 0.131131 0.122333 -0.047017
v 0.132783 0.195064 -0.046928
v 0.160709 0.179467 0.064836
v 0.056623 0.007958 0.046984
v 0.098544 0.032961 0.092182
v 0.055597 0.026446 0.118934
v 0.056623 0.007958 0.046984
v 0.055597 0.026446 0.118934
v 0.000000 0.017575 0.128348
v -0.067812 0.303459 0.105712
v 0.000000 0.330566 0.105210
v -0.055439 0.330264 0.080233
v -0.095216 0.334607 0.051100
v -0.144967 0.352304 -0.064779
v -0.090401 0.333183 -0.008776
v 0.000000 0.076866 0.175351
v 0.055316 0.079827 0.161367
v 0.000000 0.147229 0.191529
v 0.000000 0.017575 0.128348
v 0.055597 0.026446 0.118934
v 0.055316 0.079827 0.161367
v 0.055597 0.026446 0.118934
v 0.098544 0.032961 0.092182
v 0.055316 0.079827 0.161367
v 0.000000 0.017575 0.128348
v 0.055316 0.079827 0.161367
v 0.000000 0.076866 0.175351
v -0.071464 0.225872 0.153564
v 0.000000 0.277186 0.147158
v -0.067812 0.303459 0.105712
v -0.067812 0.303459 0.105712
v 0.000000 0.277186 0.147158
v 0.000000 0.330566 0.105210
v -0.067812 0.303459 0.105712
v -0.055439 0.330264 0.080233
v -0.095216 0.334607 0.051100
v 0.081732 0.258301 -0.090138
v 0.090401 0.333183 -0.008776
v 0.117242 0.290598 -0.021389
v 0.132783 0.195064 -0.046928
v 0.143431 0.252545 -0.003924
v 0.149962 0.234359 0.029633
v 0.132783 0.195064 -0.046928
v 0.149962 0.234359 0.029633
v 0.160709 0.179467 0.064836
v 0.132783 0.195064 -0.046928
v 0.117242 0.290598 -0.021389
v 0.143431 0.252545 -0.003924
v -0.144967 0.352304 -0.064779
v -0.004175 0.311985 -0.070727
v -0.090401 0.333183 -0.008776
v 0.000000 0.147229 0.191529
v 0.000000 0.216124 0.172937
v -0.071464 0.225872 0.153564
v -0.071464 0.225872 0.153564
v 0.000000 0.216124 0.172937
v 0.000000 0.277186 0.147158
v 0.098544 0.032961 0.092182
v 0.102588 0.096630 0.129798
v 0.055316 0.079827 0.161367
v 0.000000 0.330566 0.105210
v 0.000000 0.351036 0.189968
v -0.103688 0.349916 0.132002
v -0.055439 0.330264 0.080233
v -0.103688 0.349916 0.132002
v -0.095216 0.334607 0.051100
v -0.055439 0.330264 0.080233
v 0.000000 0.330566 0.105210
v -0.103688 0.349916 0.132002
v 0.081732 0.258301 -0.090138
v 0.004175 0.311985 -0.070727
v 0.090401 0.333183 -0.008776
v 0.149962 0.234359 0.029633
v 0.144259 0.261263 0.062568
v 0.160709 0.179467 0.064836
v -0.144967 0.352304 -0.064779
v -0.219221 0.392754 -0.073028
v -0.126567 0.376930 -0.154698
v -0.004175 0.311985 -0.070727
v -0.144967 0.352304 -0.064779
v -0.022859 0.340175 -0.133319
v 0.000000 0.147229 0.191529
v 0.071464 0.225872 0.153564
v 0.000000 0.216124 0.172937
v 0.000000 0.216124 0.172937
v 0.071464 0.225872 0.153564
v 0.000000 0.277186 0.147158
v 0.102588 0.096630 0.129798
v 0.132765 0.159904 0.114865
v 0.068778 0.143481 0.168025
v 0.068778 0.143481 0.168025
v 0.055316 0.079827 0.161367
v 0.102588 0.096630 0.129798
v 0.068778 0.143481 0.168025
v 0.000000 0.147229 0.191529
v 0.055316 0.079827 0.161367
v 0.068778 0.143481 0.168025
v 0.132765 0.159904 0.114865
v 0.071464 0.225872 0.153564
v 0.068778 0.143481 0.168025
v 0.071464 0.225872 0.153564
v 0.000000 0.147229 0.191529
v 0.160709 0.179467 0.064836
v 0.144259 0.261263 0.062568
v 0.132765 0.159904 0.114865
v 0.000000 0.351036 0.189968
v -0.139763 0.392240 0.221129
v -0.103688 0.349916 0.132002
v -0.095216 0.334607 0.051100
v -0.206374 0.376393 0.089389
v -0.144967 0.352304 -0.064779
v -0.144967 0.352304 -0.064779
v -0.206374 0.376393 0.089389
v -0.219221 0.392754 -0.073028
v -0.103688 0.349916 0.132002
v -0.139763 0.392240 0.221129
v -0.206374 0.376393 0.089389
v -0.103688 0.349916 0.132002
v -0.206374 0.376393 0.089389
v -0.095216 0.334607 0.051100
v -0.144967 0.352304 -0.064779
v -0.126567 0.376930 -0.154698
v -0.022859 0.340175 -0.133319
v 0.000000 0.330566 0.105210
v 0.103688 0.349916 0.132002
v 0.000000 0.351036 0.189968
v 0.000000 0.277186 0.147158
v 0.067812 0.303459 0.105712
v 0.000000 0.330566 0.105210
v 0.000000 0.277186 0.147158
v 0.071464 0.225872 0.153564
v 0.067812 0.303459 0.105712
v 0.144259 0.261263 0.062568
v 0.117785 0.241326 0.113905
v 0.132765 0.159904 0.114865
v 0.071464 0.225872 0.153564
v 0.117785 0.241326 0.113905
v 0.067812 0.303459 0.105712
v 0.071464 0.225872 0.153564
v 0.132765 0.159904 0.114865
v 0.117785 0.241326 0.113905
v -0.219221 0.392754 -0.073028
v -0.169402 0.440904 -0.178974
v -0.126567 0.376930 -0.154698
v -0.139763 0.392240 0.221129
v 0.000000 0.399146 0.284413
v -0.127803 0.459791 0.320729
v -0.206374 0.376393 0.089389
v -0.218575 0.443371 0.226208
v -0.254835 0.417405 0.076631
v -0.139763 0.392240 0.221129
v 0.000000 0.351036 0.189968
v 0.000000 0.399146 0.284413
v -0.139763 0.392240 0.221129
v -0.127803 0.459791 0.320729
v -0.218575 0.443371 0.226208
v -0.206374 0.376393 0.089389
v -0.254835 0.417405 0.076631
v -0.219221 0.392754 -0.073028
v -0.206374 0.376393 0.089389
v -0.139763 0.392240 0.221129
v -0.218575 0.443371 0.226208
v -0.022859 0.340175 -0.133319
v -0.126567 0.376930 -0.154698
v -0.024902 0.362944 -0.170747
v 0.103688 0.349916 0.132002
v 0.139763 0.392240 0.221129
v 0.000000 0.351036 0.189968
v 0.000000 0.351036 0.189968
v 0.139763 0.392240 0.221129
v 0.000000 0.399146 0.284413
v 0.000000 0.330566 0.105210
v 0.055439 0.330264 0.080233
v 0.103688 0.349916 0.132002
v 0.000000 0.330566 0.105210
v 0.067812 0.303459 0.105712
v 0.055439 0.330264 0.080233
v 0.144259 0.261263 0.062568
v 0.120242 0.308014 0.061678
v 0.117785 0.241326 0.113905
v 0.117785 0.241326 0.113905
v 0.120242 0.308014 0.061678
v 0.067812 0.303459 0.105712
v -0.169402 0.440904 -0.178974
v -0.236594 0.543642 -0.116009
v -0.104869 0.556298 -0.207159
v -0.127803 0.459791 0.320729
v 0.000000 0.537409 0.369884
v -0.139468 0.530161 0.328681
v -0.254835 0.417405 0.076631
v -0.241565 0.510371 0.216111
v -0.278935 0.483333 0.062337
v -0.218575 0.443371 0.226208
v -0.139468 0.530161 0.328681
v -0.241565 0.510371 0.216111
v -0.218575 0.443371 0.226208
v -0.127803 0.459791 0.320729
v -0.139468 0.530161 0.328681
v -0.254835 0.417405 0.076631
v -0.278935 0.483333 0.062337
v -0.219221 0.392754 -0.073028
v -0.254835 0.417405 0.076631
v -0.218575 0.443371 0.226208
v -0.241565 0.510371 0.216111
v -0.126567 0.376930 -0.154698
v -0.169402 0.440904 -0.178974
v -0.098906 0.434795 -0.220419
v -0.024902 0.362944 -0.170747
v -0.053046 0.381548 -0.190512
v 0.000000 0.384396 -0.204199
v -0.126567 0.376930 -0.154698
v -0.053046 0.381548 -0.190512
v -0.024902 0.362944 -0.170747
v -0.126567 0.376930 -0.154698
v -0.098906 0.434795 -0.220419
v -0.053046 0.381548 -0.190512
v 0.139763 0.392240 0.221129
v 0.103688 0.349916 0.132002
v 0.206374 0.376393 0.089389
v 0.000000 0.399146 0.284413
v 0.000000 0.466227 0.353173
v -0.127803 0.459791 0.320729
v -0.127803 0.459791 0.320729
v 0.000000 0.466227 0.353173
v 0.000000 0.537409 0.369884
v 0.055439 0.330264 0.080233
v 0.095216 0.334607 0.051100
v 0.103688 0.349916 0.132002
v 0.067812 0.303459 0.105712
v 0.120242 0.308014 0.061678
v 0.095216 0.334607 0.051100
v 0.067812 0.303459 0.105712
v 0.095216 0.334607 0.051100
v 0.055439 0.330264 0.080233
v 0.103688 0.349916 0.132002
v 0.095216 0.334607 0.051100
v 0.206374 0.376393 0.089389
v -0.236594 0.543642 -0.116009
v -0.241565 0.456295 -0.091437
v -0.274998 0.569054 0.038555
v -0.241565 0.456295 -0.091437
v -0.219221 0.392754 -0.073028
v -0.278935 0.483333 0.062337
v -0.241565 0.456295 -0.091437
v -0.236594 0.543642 -0.116009
v -0.169402 0.440904 -0.178974
v -0.241565 0.456295 -0.091437
v -0.278935 0.483333 0.062337
v -0.274998 0.569054 0.038555
v -0.241565 0.456295 -0.091437
v -0.169402 0.440904 -0.178974
v -0.219221 0.392754 -0.073028
v -0.104869 0.556298 -0.207159
v -0.236594 0.543642 -0.116009
v -0.156175 0.618190 -0.159170
v -0.139468 0.530161 0.328681
v 0.000000 0.627580 0.347108
v -0.136598 0.618020 0.307012
v -0.139468 0.530161 0.328681
v -0.136598 0.618020 0.307012
v -0.241565 0.510371 0.216111
v -0.139468 0.530161 0.328681
v 0.000000 0.537409 0.369884
v 0.000000 0.627580 0.347108
v 0.000000 0.384396 -0.204199
v -0.053046 0.381548 -0.190512
v 0.000000 0.434006 -0.247641
v -0.053046 0.381548 -0.190512
v -0.098906 0.434795 -0.220419
v 0.000000 0.434006 -0.247641
v 0.139763 0.392240 0.221129
v 0.127803 0.459791 0.320729
v 0.000000 0.399146 0.284413
v 0.000000 0.466227 0.353173
v 0.000000 0.399146 0.284413
v 0.127803 0.459791 0.320729
v 0.000000 0.466227 0.353173
v 0.127803 0.459791 0.320729
v 0.000000 0.537409 0.369884
v 0.095216 0.334607 0.051100
v 0.090401 0.333183 -0.008776
v 0.144967 0.352304 -0.064779
v 0.095216 0.334607 0.051100
v 0.144967 0.352304 -0.064779
v 0.206374 0.376393 0.089389
v -0.278935 0.483333 0.062337
v -0.236594 0.598092 0.193664
v -0.274998 0.569054 0.038555
v -0.241565 0.510371 0.216111
v -0.136598 0.618020 0.307012
v -0.236594 0.598092 0.193664
v -0.241565 0.510371 0.216111
v -0.236594 0.598092 0.193664
v -0.278935 0.483333 0.062337
v -0.169402 0.440904 -0.178974
v -0.104869 0.556298 -0.207159
v -0.038731 0.477000 -0.237248
v -0.038731 0.477000 -0.237248
v 0.000000 0.434006 -0.247641
v -0.098906 0.434795 -0.220419
v -0.098906 0.434795 -0.220419
v -0.169402 0.440904 -0.178974
v -0.038731 0.477000 -0.237248
v -0.236594 0.543642 -0.116009
v -0.249362 0.649399 0.016228
v -0.229932 0.616493 -0.104425
v -0.236594 0.543642 -0.116009
v -0.229932 0.616493 -0.104425
v -0.156175 0.618190 -0.159170
v -0.236594 0.543642 -0.116009
v -0.274998 0.569054 0.038555
v -0.249362 0.649399 0.016228
v 0.000000 0.627580 0.347108
v 0.000000 0.698412 0.293184
v -0.136598 0.618020 0.307012
v 0.000000 0.384396 -0.204199
v 0.053046 0.381548 -0.190512
v 0.024902 0.362944 -0.170747
v 0.000000 0.384396 -0.204199
v 0.000000 0.434006 -0.247641
v 0.053046 0.381548 -0.190512
v 0.139763 0.392240 0.221129
v 0.218575 0.443371 0.226208
v 0.127803 0.459791 0.320729
v 0.139763 0.392240 0.221129
v 0.206374 0.376393 0.089389
v 0.218575 0.443371 0.226208
v 0.000000 0.537409 0.369884
v 0.127803 0.459791 0.320729
v 0.139468 0.530161 0.328681
v 0.127803 0.459791 0.320729
v 0.218575 0.443371 0.226208
v 0.139468 0.530161 0.328681
v 0.000000 0.537409 0.369884
v 0.139468 0.530161 0.328681
v 0.000000 0.627580 0.347108
v 0.090401 0.333183 -0.008776
v 0.004175 0.311985 -0.070727
v 0.144967 0.352304 -0.064779
v -0.236594 0.598092 0.193664
v -0.130879 0.691795 0.255557
v -0.215954 0.673721 0.152759
v -0.236594 0.598092 0.193664
v -0.215954 0.673721 0.152759
v -0.274998 0.569054 0.038555
v -0.136598 0.618020 0.307012
v 0.000000 0.698412 0.293184
v -0.130879 0.691795 0.255557
v -0.136598 0.618020 0.307012
v -0.130879 0.691795 0.255557
v -0.236594 0.598092 0.193664
v -0.274998 0.569054 0.038555
v -0.215954 0.673721 0.152759
v -0.249362 0.649399 0.016228
v -0.229932 0.616493 -0.104425
v -0.249362 0.649399 0.016228
v -0.206362 0.688107 -0.082078
v -0.229932 0.616493 -0.104425
v -0.206362 0.688107 -0.082078
v -0.156175 0.618190 -0.159170
v 0.024902 0.362944 -0.170747
v 0.126567 0.376930 -0.154698
v 0.022859 0.340175 -0.133319
v 0.022859 0.340175 -0.133319
v 0.144967 0.352304 -0.064779
v 0.004175 0.311985 -0.070727
v 0.022859 0.340175 -0.133319
v 0.126567 0.376930 -0.154698
v 0.144967 0.352304 -0.064779
v 0.024902 0.362944 -0.170747
v 0.053046 0.381548 -0.190512
v 0.126567 0.376930 -0.154698
v 0.000000 0.434006 -0.247641
v 0.038731 0.477000 -0.237248
v 0.098906 0.434795 -0.220419
v 0.053046 0.381548 -0.190512
v 0.000000 0.434006 -0.247641
v 0.098906 0.434795 -0.220419
v 0.053046 0.381548 -0.190512
v 0.098906 0.434795 -0.220419
v 0.126567 0.376930 -0.154698
v 0.206374 0.376393 0.089389
v 0.254835 0.417405 0.076631
v 0.218575 0.443371 0.226208
v 0.139468 0.530161 0.328681
v 0.136598 0.618020 0.307012
v 0.000000 0.627580 0.347108
v 0.000000 0.627580 0.347108
v 0.136598 0.618020 0.307012
v 0.000000 0.698412 0.293184
v -0.130879 0.691795 0.255557
v 0.000000 0.698412 0.293184
v 0.000000 0.749625 0.235023
v -0.215954 0.673721 0.152759
v -0.130879 0.691795 0.255557
v -0.185234 0.728844 0.116845
v -0.215954 0.673721 0.152759
v -0.185234 0.728844 0.116845
v -0.249362 0.649399 0.016228
v -0.206362 0.688107 -0.082078
v -0.249362 0.649399 0.016228
v -0.213889 0.705229 0.002863
v -0.249362 0.649399 0.016228
v -0.185234 0.728844 0.116845
v -0.213889 0.705229 0.002863
v 0.144967 0.352304 -0.064779
v 0.126567 0.376930 -0.154698
v 0.219221 0.392754 -0.073028
v 0.206374 0.376393 0.089389
v 0.144967 0.352304 -0.064779
v 0.219221 0.392754 -0.073028
v 0.206374 0.376393 0.089389
v 0.219221 0.392754 -0.073028
v 0.254835 0.417405 0.076631
v 0.038731 0.477000 -0.237248
v 0.104869 0.556298 -0.207159
v 0.169402 0.440904 -0.178974
v 0.126567 0.376930 -0.154698
v 0.098906 0.434795 -0.220419
v 0.169402 0.440904 -0.178974
v 0.098906 0.434795 -0.220419
v 0.038731 0.477000 -0.237248
v 0.169402 0.440904 -0.178974
v 0.126567 0.376930 -0.154698
v 0.169402 0.440904 -0.178974
v 0.219221 0.392754 -0.073028
v 0.218575 0.443371 0.226208
v 0.241565 0.510371 0.216111
v 0.139468 0.530161 0.328681
v 0.139468 0.530161 0.328681
v 0.241565 0.510371 0.216111
v 0.136598 0.618020 0.307012
v 0.218575 0.443371 0.226208
v 0.254835 0.417405 0.076631
v 0.241565 0.510371 0.216111
v 0.000000 0.698412 0.293184
v 0.130879 0.691795 0.255557
v 0.000000 0.749625 0.235023
v 0.000000 0.698412 0.293184
v 0.136598 0.618020 0.307012
v 0.130879 0.691795 0.255557
v -0.130879 0.691795 0.255557
v -0.118377 0.740344 0.203707
v -0.185234 0.728844 0.116845
v -0.130879 0.691795 0.255557
v 0.000000 0.749625 0.235023
v -0.118377 0.740344 0.203707
v -0.206362 0.688107 -0.082078
v -0.213889 0.705229 0.002863
v -0.189478 0.730470 0.014311
v -0.213889 0.705229 0.002863
v -0.185234 0.728844 0.116845
v -0.189478 0.730470 0.014311
v 0.104869 0.556298 -0.207159
v 0.156175 0.618190 -0.159170
v 0.236594 0.543642 -0.116009
v 0.104869 0.556298 -0.207159
v 0.236594 0.543642 -0.116009
v 0.169402 0.440904 -0.178974
v 0.219221 0.392754 -0.073028
v 0.241565 0.456295 -0.091437
v 0.278935 0.483333 0.062337
v 0.219221 0.392754 -0.073028
v 0.278935 0.483333 0.062337
v 0.254835 0.417405 0.076631
v 0.169402 0.440904 -0.178974
v 0.236594 0.543642 -0.116009
v 0.241565 0.456295 -0.091437
v 0.169402 0.440904 -0.178974
v 0.241565 0.456295 -0.091437
v 0.219221 0.392754 -0.073028
v 0.254835 0.417405 0.076631
v 0.278935 0.483333 0.062337
v 0.241565 0.510371 0.216111
v 0.136598 0.618020 0.307012
v 0.241565 0.510371 0.216111
v 0.236594 0.598092 0.193664
v 0.241565 0.510371 0.216111
v 0.278935 0.483333 0.062337
v 0.236594 0.598092 0.193664
v 0.136598 0.618020 0.307012
v 0.236594 0.598092 0.193664
v 0.130879 0.691795 0.255557
v 0.000000 0.749625 0.235023
v 0.000000 0.789395 0.170240
v -0.118377 0.740344 0.203707
v -0.185234 0.728844 0.116845
v -0.118377 0.740344 0.203707
v -0.167523 0.767832 0.093584
v -0.185234 0.728844 0.116845
v -0.167523 0.767832 0.093584
v -0.189478 0.730470 0.014311
v 0.156175 0.618190 -0.159170
v 0.206362 0.688107 -0.082078
v 0.229932 0.616493 -0.104425
v 0.156175 0.618190 -0.159170
v 0.229932 0.616493 -0.104425
v 0.236594 0.543642 -0.116009
v 0.241565 0.456295 -0.091437
v 0.236594 0.543642 -0.116009
v 0.274998 0.569054 0.038555
v 0.278935 0.483333 0.062337
v 0.274998 0.569054 0.038555
v 0.236594 0.598092 0.193664
v 0.278935 0.483333 0.062337
v 0.241565 0.456295 -0.091437
v 0.274998 0.569054 0.038555
v 0.130879 0.691795 0.255557
v 0.236594 0.598092 0.193664
v 0.215954 0.673721 0.152759
v 0.236594 0.598092 0.193664
v 0.274998 0.569054 0.038555
v 0.215954 0.673721 0.152759
v 0.000000 0.749625 0.235023
v 0.118377 0.740344 0.203707
v 0.000000 0.789395 0.170240
v 0.000000 0.749625 0.235023
v 0.130879 0.691795 0.255557
v 0.118377 0.740344 0.203707
v -0.118377 0.740344 0.203707
v -0.072774 0.783104 0.140192
v -0.117482 0.778999 0.129577
v -0.118377 0.740344 0.203707
v -0.117482 0.778999 0.129577
v -0.167523 0.767832 0.093584
v -0.118377 0.740344 0.203707
v 0.000000 0.789395 0.170240
v -0.072774 0.783104 0.140192
v 0.206362 0.688107 -0.082078
v 0.249362 0.649399 0.016228
v 0.229932 0.616493 -0.104425
v 0.274998 0.569054 0.038555
v 0.236594 0.543642 -0.116009
v 0.249362 0.649399 0.016228
v 0.236594 0.543642 -0.116009
v 0.229932 0.616493 -0.104425
v 0.249362 0.649399 0.016228
v 0.274998 0.569054 0.038555
v 0.249362 0.649399 0.016228
v 0.215954 0.673721 0.152759
v 0.130879 0.691795 0.255557
v 0.215954 0.673721 0.152759
v 0.185234 0.728844 0.116845
v 0.215954 0.673721 0.152759
v 0.249362 0.649399 0.016228
v 0.185234 0.728844 0.116845
v 0.130879 0.691795 0.255557
v 0.185234 0.728844 0.116845
v 0.118377 0.740344 0.203707
v 0.000000 0.789395 0.170240
v 0.118377 0.740344 0.203707
v 0.072774 0.783104 0.140192
v 0.206362 0.688107 -0.082078
v 0.213889 0.705229 0.002863
v 0.249362 0.649399 0.016228
v 0.249362 0.649399 0.016228
v 0.213889 0.705229 0.002863
v 0.185234 0.728844 0.116845
v 0.118377 0.740344 0.203707
v 0.117482 0.778999 0.129577
v 0.072774 0.783104 0.140192
v 0.206362 0.688107 -0.082078
v 0.189478 0.730470 0.014311
v 0.213889 0.705229 0.002863
v 0.213889 0.705229 0.002863
v 0.189478 0.730470 0.014311
v 0.185234 0.728844 0.116845
v 0.118377 0.740344 0.203707
v 0.185234 0.728844 0.116845
v 0.167523 0.767832 0.093584
v 0.167523 0.767832 0.093584
v 0.117482 0.778999 0.129577
v 0.118377 0.740344 0.203707
v 0.167523 0.767832 0.093584
v 0.185234 0.728844 0.116845
v 0.189478 0.730470 0.014311
v -0.244184 0.271603 -0.269914
v -0.212239 0.263441 -0.190383
v -0.167810 0.294615 -0.181944
v -0.212239 0.263441 -0.190383
v -0.155521 0.278480 -0.144804
v -0.167810 0.294615 -0.181944
v -0.212239 0.263441 -0.190383
v -0.176885 0.203303 -0.193161
v -0.170112 0.209759 -0.160557
v -0.155521 0.278480 -0.144804
v -0.143783 0.333509 -0.149559
v -0.167810 0.294615 -0.181944
v -0.212239 0.263441 -0.190383
v -0.244184 0.271603 -0.269914
v -0.176885 0.203303 -0.193161
v -0.170112 0.209759 -0.160557
v -0.176885 0.203303 -0.193161
v -0.197899 0.149358 -0.216255
v -0.155521 0.278480 -0.144804
v -0.212239 0.263441 -0.190383
v -0.072143 0.220626 -0.081136
v -0.212239 0.263441 -0.190383
v -0.170112 0.209759 -0.160557
v -0.072143 0.220626 -0.081136
v -0.155521 0.278480 -0.144804
v -0.072143 0.220626 -0.081136
v -0.143783 0.333509 -0.149559
v -0.167810 0.294615 -0.181944
v -0.143783 0.333509 -0.149559
v -0.175938 0.361104 -0.191346
v -0.197899 0.149358 -0.216255
v -0.159691 0.154503 -0.172104
v -0.170112 0.209759 -0.160557
v -0.170112 0.209759 -0.160557
v -0.159691 0.154503 -0.172104
v -0.072143 0.220626 -0.081136
v -0.143783 0.333509 -0.149559
v -0.072143 0.220626 -0.081136
v -0.138454 0.281249 -0.184811
v -0.159691 0.154503 -0.172104
v -0.142646 0.206668 -0.186057
v -0.072143 0.220626 -0.081136
v -0.072143 0.220626 -0.081136
v -0.074841 0.245537 -0.081198
v -0.143783 0.333509 -0.149559
v -0.138454 0.281249 -0.184811
v -0.072143 0.220626 -0.081136
v -0.164387 0.253316 -0.225870
v -0.159691 0.154503 -0.172104
v -0.197899 0.149358 -0.216255
v -0.142646 0.206668 -0.186057
v -0.072143 0.220626 -0.081136
v -0.159691 0.154503 -0.172104
v -0.076720 0.198911 -0.088436
v -0.143783 0.333509 -0.149559
v -0.138454 0.281249 -0.184811
v -0.175938 0.361104 -0.191346
v -0.072143 0.220626 -0.081136
v -0.142646 0.206668 -0.186057
v -0.164387 0.253316 -0.225870
v -0.197899 0.149358 -0.216255
v -0.176885 0.203303 -0.193161
v -0.142646 0.206668 -0.186057
v -0.142646 0.206668 -0.186057
v -0.176885 0.203303 -0.193161
v -0.164387 0.253316 -0.225870
v -0.159691 0.154503 -0.172104
v -0.072143 0.220626 -0.081136
v -0.076720 0.198911 -0.088436
v -0.143783 0.333509 -0.149559
v -0.074841 0.245537 -0.081198
v -0.072143 0.220626 -0.081136
v -0.138454 0.281249 -0.184811
v -0.164387 0.253316 -0.225870
v -0.167810 0.294615 -0.181944
v -0.138454 0.281249 -0.184811
v -0.167810 0.294615 -0.181944
v -0.175938 0.361104 -0.191346
v -0.176885 0.203303 -0.193161
v -0.244184 0.271603 -0.269914
v -0.164387 0.253316 -0.225870
v -0.167810 0.294615 -0.181944
v -0.164387 0.253316 -0.225870
v -0.244184 0.271603 -0.269914
v 0.126507 0.049144 0.042841
v 0.146384 0.012465 0.073415
v 0.098544 0.032961 0.092182
v 0.146384 0.012465 0.073415
v 0.198658 0.003084 0.140948
v 0.098544 0.032961 0.092182
v 0.198658 0.003084 0.140948
v 0.239181 0.014942 0.195692
v 0.149810 0.050985 0.175358
v 0.198658 0.003084 0.140948
v 0.149810 0.050985 0.175358
v 0.098544 0.032961 0.092182
v 0.239181 0.014942 0.195692
v 0.255690 0.036856 0.223267
v 0.203248 0.077398 0.240659
v 0.239181 0.014942 0.195692
v 0.203248 0.077398 0.240659
v 0.149810 0.050985 0.175358
v 0.098544 0.032961 0.092182
v 0.149810 0.050985 0.175358
v 0.102588 0.096630 0.129798
v 0.255690 0.036856 0.223267
v 0.245773 0.087425 0.247378
v 0.203248 0.077398 0.240659
v 0.149810 0.050985 0.175358
v 0.155506 0.129438 0.183299
v 0.102588 0.096630 0.129798
v 0.149810 0.050985 0.175358
v 0.203248 0.077398 0.240659
v 0.155506 0.129438 0.183299
v 0.245773 0.087425 0.247378
v 0.246561 0.142737 0.207145
v 0.203248 0.077398 0.240659
v 0.203248 0.077398 0.240659
v 0.246561 0.142737 0.207145
v 0.155506 0.129438 0.183299
v 0.102588 0.096630 0.129798
v 0.155506 0.129438 0.183299
v 0.132765 0.159904 0.114865
v 0.245773 0.087425 0.247378
v 0.270041 0.116206 0.237612
v 0.246561 0.142737 0.207145
v 0.155506 0.129438 0.183299
v 0.204351 0.176125 0.150126
v 0.132765 0.159904 0.114865
v 0.155506 0.129438 0.183299
v 0.246561 0.142737 0.207145
v 0.204351 0.176125 0.150126
v 0.270041 0.116206 0.237612
v 0.308630 0.075282 0.187836
v 0.273083 0.135522 0.137532
v 0.246561 0.142737 0.207145
v 0.270041 0.116206 0.237612
v 0.273083 0.135522 0.137532
v 0.246561 0.142737 0.207145
v 0.273083 0.135522 0.137532
v 0.204351 0.176125 0.150126
v 0.132765 0.159904 0.114865
v 0.204351 0.176125 0.150126
v 0.160709 0.179467 0.064836
v 0.308630 0.075282 0.187836
v 0.253280 0.028456 0.119178
v 0.292909 0.094013 0.109136
v 0.270041 0.116206 0.237612
v 0.284212 0.073989 0.221753
v 0.308630 0.075282 0.187836
v 0.273083 0.135522 0.137532
v 0.292909 0.094013 0.109136
v 0.233653 0.160416 0.073679
v 0.273083 0.135522 0.137532
v 0.233653 0.160416 0.073679
v 0.204351 0.176125 0.150126
v 0.204351 0.176125 0.150126
v 0.233653 0.160416 0.073679
v 0.160709 0.179467 0.064836
v 0.273083 0.135522 0.137532
v 0.308630 0.075282 0.187836
v 0.292909 0.094013 0.109136
v 0.253280 0.028456 0.119178
v 0.198658 0.003084 0.140948
v 0.146384 0.012465 0.073415
v 0.284212 0.073989 0.221753
v 0.255690 0.036856 0.223267
v 0.308630 0.075282 0.187836
v 0.233653 0.160416 0.073679
v 0.152204 0.113029 0.025589
v 0.160709 0.179467 0.064836
v 0.292909 0.094013 0.109136
v 0.206849 0.038475 0.046659
v 0.239773 0.103874 0.044226
v 0.239773 0.103874 0.044226
v 0.233653 0.160416 0.073679
v 0.292909 0.094013 0.109136
v 0.239773 0.103874 0.044226
v 0.206849 0.038475 0.046659
v 0.152204 0.113029 0.025589
v 0.239773 0.103874 0.044226
v 0.152204 0.113029 0.025589
v 0.233653 0.160416 0.073679
v 0.292909 0.094013 0.109136
v 0.253280 0.028456 0.119178
v 0.206849 0.038475 0.046659
v 0.198658 0.003084 0.140948
v 0.253280 0.028456 0.119178
v 0.239181 0.014942 0.195692
v 0.239181 0.014942 0.195692
v 0.308630 0.075282 0.187836
v 0.255690 0.036856 0.223267
v 0.253280 0.028456 0.119178
v 0.146384 0.012465 0.073415
v 0.206849 0.038475 0.046659
v 0.253280 0.028456 0.119178
v 0.308630 0.075282 0.187836
v 0.239181 0.014942 0.195692
v 0.152204 0.113029 0.025589
v 0.206849 0.038475 0.046659
v 0.126507 0.049144 0.042841
v 0.126507 0.049144 0.042841
v 0.206849 0.038475 0.046659
v 0.146384 0.012465 0.073415
v 0.270041 0.116206 0.237612
v 0.289977 0.139058 0.258506
v 0.284212 0.073989 0.221753
v 0.289977 0.139058 0.258506
v 0.272010 0.106005 0.278774
v 0.316660 0.106376 0.246749
v 0.284212 0.073989 0.221753
v 0.316660 0.106376 0.246749
v 0.295971 0.029191 0.234935
v 0.289977 0.139058 0.258506
v 0.245773 0.087425 0.247378
v 0.272010 0.106005 0.278774
v 0.284212 0.073989 0.221753
v 0.295971 0.029191 0.234935
v 0.255690 0.036856 0.223267
v 0.284212 0.073989 0.221753
v 0.289977 0.139058 0.258506
v 0.316660 0.106376 0.246749
v 0.245773 0.087425 0.247378
v 0.255690 0.036856 0.223267
v 0.241877 0.051027 0.262500
v 0.272010 0.106005 0.278774
v 0.241877 0.051027 0.262500
v 0.277288 0.036050 0.269101
v 0.272010 0.106005 0.278774
v 0.277288 0.036050 0.269101
v 0.316660 0.106376 0.246749
v 0.316660 0.106376 0.246749
v 0.277288 0.036050 0.269101
v 0.295971 0.029191 0.234935
v 0.272010 0.106005 0.278774
v 0.245773 0.087425 0.247378
v 0.241877 0.051027 0.262500
v 0.255690 0.036856 0.223267
v 0.295971 0.029191 0.234935
v 0.256152 0.013311 0.241130
v 0.256152 0.013311 0.241130
v 0.241877 0.051027 0.262500
v 0.255690 0.036856 0.223267
v 0.256152 0.013311 0.241130
v 0.277288 0.036050 0.269101
v 0.241877 0.051027 0.262500
v 0.277288 0.036050 0.269101
v 0.256152 0.013311 0.241130
v 0.295971 0.029191 0.234935
v 0.289977 0.139058 0.258506
v 0.270041 0.116206 0.237612
v 0.245773 0.087425 0.247378
v 0.149962 0.234359 0.029633
v 0.143431 0.252545 -0.003924
v 0.206618 0.217573 0.038690
v 0.143431 0.252545 -0.003924
v 0.117242 0.290598 -0.021389
v 0.207725 0.257605 -0.015656
v 0.143431 0.252545 -0.003924
v 0.207725 0.257605 -0.015656
v 0.206618 0.217573 0.038690
v 0.117242 0.290598 -0.021389
v 0.090401 0.333183 -0.008776
v 0.158605 0.317652 -0.002456
v 0.117242 0.290598 -0.021389
v 0.158605 0.317652 -0.002456
v 0.207725 0.257605 -0.015656
v 0.206618 0.217573 0.038690
v 0.207725 0.257605 -0.015656
v 0.280320 0.198206 0.044797
v 0.090401 0.333183 -0.008776
v 0.095216 0.334607 0.051100
v 0.151400 0.325863 0.038745
v 0.090401 0.333183 -0.008776
v 0.151400 0.325863 0.038745
v 0.158605 0.317652 -0.002456
v 0.207725 0.257605 -0.015656
v 0.158605 0.317652 -0.002456
v 0.223321 0.289052 0.008853
v 0.280320 0.198206 0.044797
v 0.207725 0.257605 -0.015656
v 0.282406 0.233755 0.003969
v 0.207725 0.257605 -0.015656
v 0.223321 0.289052 0.008853
v 0.282406 0.233755 0.003969
v 0.095216 0.334607 0.051100
v 0.120242 0.308014 0.061678
v 0.151400 0.325863 0.038745
v 0.158605 0.317652 -0.002456
v 0.151400 0.325863 0.038745
v 0.227976 0.298802 0.047988
v 0.151400 0.325863 0.038745
v 0.120242 0.308014 0.061678
v 0.227976 0.298802 0.047988
v 0.158605 0.317652 -0.002456
v 0.227976 0.298802 0.047988
v 0.223321 0.289052 0.008853
v 0.280320 0.198206 0.044797
v 0.282406 0.233755 0.003969
v 0.322279 0.202559 0.051097
v 0.120242 0.308014 0.061678
v 0.144259 0.261263 0.062568
v 0.207018 0.262603 0.068556
v 0.120242 0.308014 0.061678
v 0.207018 0.262603 0.068556
v 0.227976 0.298802 0.047988
v 0.223321 0.289052 0.008853
v 0.298442 0.262294 0.024367
v 0.282406 0.233755 0.003969
v 0.223321 0.289052 0.008853
v 0.227976 0.298802 0.047988
v 0.298442 0.262294 0.024367
v 0.322279 0.202559 0.051097
v 0.282406 0.233755 0.003969
v 0.330592 0.225773 0.036529
v 0.282406 0.233755 0.003969
v 0.298442 0.262294 0.024367
v 0.330592 0.225773 0.036529
v 0.144259 0.261263 0.062568
v 0.206618 0.217573 0.038690
v 0.207018 0.262603 0.068556
v 0.227976 0.298802 0.047988
v 0.304684 0.268757 0.056214
v 0.298442 0.262294 0.024367
v 0.227976 0.298802 0.047988
v 0.207018 0.262603 0.068556
v 0.304684 0.268757 0.056214
v 0.322279 0.202559 0.051097
v 0.330592 0.225773 0.036529
v 0.341093 0.223851 0.051848
v 0.144259 0.261263 0.062568
v 0.149962 0.234359 0.029633
v 0.206618 0.217573 0.038690
v 0.298442 0.262294 0.024367
v 0.334938 0.244067 0.049098
v 0.330592 0.225773 0.036529
v 0.330592 0.225773 0.036529
v 0.334938 0.244067 0.049098
v 0.341093 0.223851 0.051848
v 0.298442 0.262294 0.024367
v 0.304684 0.268757 0.056214
v 0.334938 0.244067 0.049098
v 0.207018 0.262603 0.068556
v 0.294851 0.231219 0.075414
v 0.304684 0.268757 0.056214
v 0.207018 0.262603 0.068556
v 0.206618 0.217573 0.038690
v 0.294851 0.231219 0.075414
v 0.341093 0.223851 0.051848
v 0.326707 0.222097 0.072069
v 0.322279 0.202559 0.051097
v 0.304684 0.268757 0.056214
v 0.326707 0.222097 0.072069
v 0.334938 0.244067 0.049098
v 0.334938 0.244067 0.049098
v 0.326707 0.222097 0.072069
v 0.341093 0.223851 0.051848
v 0.304684 0.268757 0.056214
v 0.294851 0.231219 0.075414
v 0.326707 0.222097 0.072069
v 0.206618 0.217573 0.038690
v 0.280320 0.198206 0.044797
v 0.294851 0.231219 0.075414
v 0.280320 0.198206 0.044797
v 0.322279 0.202559 0.051097
v 0.326707 0.222097 0.072069
v 0.326707 0.222097 0.072069
v 0.294851 0.231219 0.075414
v 0.280320 0.198206 0.044797
v 0.244184 0.271603 -0.269914
v 0.167810 0.294615 -0.181944
v 0.212239 0.263441 -0.190383
v 0.167810 0.294615 -0.181944
v 0.155521 0.278480 -0.144804
v 0.212239 0.263441 -0.190383
v 0.167810 0.294615 -0.181944
v 0.175938 0.361104 -0.191346
v 0.143783 0.333509 -0.149559
v 0.167810 0.294615 -0.181944
v 0.143783 0.333509 -0.149559
v 0.155521 0.278480 -0.144804
v 0.212239 0.263441 -0.190383
v 0.170112 0.209759 -0.160557
v 0.176885 0.203303 -0.193161
v 0.143783 0.333509 -0.149559
v 0.138454 0.281249 -0.184811
v 0.072143 0.220626 -0.081136
v 0.155521 0.278480 -0.144804
v 0.072143 0.220626 -0.081136
v 0.212239 0.263441 -0.190383
v 0.155521 0.278480 -0.144804
v 0.143783 0.333509 -0.149559
v 0.072143 0.220626 -0.081136
v 0.170112 0.209759 -0.160557
v 0.197899 0.149358 -0.216255
v 0.176885 0.203303 -0.193161
v 0.138454 0.281249 -0.184811
v 0.164387 0.253316 -0.225870
v 0.072143 0.220626 -0.081136
v 0.212239 0.263441 -0.190383
v 0.176885 0.203303 -0.193161
v 0.244184 0.271603 -0.269914
v 0.212239 0.263441 -0.190383
v 0.072143 0.220626 -0.081136
v 0.170112 0.209759 -0.160557
v 0.143783 0.333509 -0.149559
v 0.074841 0.245537 -0.081198
v 0.072143 0.220626 -0.081136
v 0.197899 0.149358 -0.216255
v 0.170112 0.209759 -0.160557
v 0.159691 0.154503 -0.172104
v 0.170112 0.209759 -0.160557
v 0.072143 0.220626 -0.081136
v 0.159691 0.154503 -0.172104
v 0.138454 0.281249 -0.184811
v 0.143783 0.333509 -0.149559
v 0.175938 0.361104 -0.191346
v 0.164387 0.253316 -0.225870
v 0.142646 0.206668 -0.186057
v 0.072143 0.220626 -0.081136
v 0.072143 0.220626 -0.081136
v 0.076720 0.198911 -0.088436
v 0.159691 0.154503 -0.172104
v 0.138454 0.281249 -0.184811
v 0.167810 0.294615 -0.181944
v 0.164387 0.253316 -0.225870
v 0.138454 0.281249 -0.184811
v 0.175938 0.361104 -0.191346
v 0.167810 0.294615 -0.181944
v 0.143783 0.333509 -0.149559
v 0.072143 0.220626 -0.081136
v 0.074841 0.245537 -0.081198
v 0.142646 0.206668 -0.186057
v 0.159691 0.154503 -0.172104
v 0.072143 0.220626 -0.081136
v 0.164387 0.253316 -0.225870
v 0.176885 0.203303 -0.193161
v 0.142646 0.206668 -0.186057
v 0.167810 0.294615 -0.181944
v 0.244184 0.271603 -0.269914
v 0.164387 0.253316 -0.225870
v 0.159691 0.154503 -0.172104
v 0.142646 0.206668 -0.186057
v 0.197899 0.149358 -0.216255
v 0.197899 0.149358 -0.216255
v 0.142646 0.206668 -0.186057
v 0.176885 0.203303 -0.193161
v 0.072143 0.220626 -0.081136
v 0.159691 0.154503 -0.172104
v 0.076720 0.198911 -0.088436
v 0.164387 0.253316 -0.225870
v 0.244184 0.271603 -0.269914
v 0.176885 0.203303 -0.193161
v -0.081732 0.189999 -0.105440
v -0.081732 0.195654 -0.210502
v -0.081732 0.116182 -0.102234
v -0.081732 0.189999 -0.105440
v -0.081732 0.258301 -0.090138
v -0.081732 0.195654 -0.210502
v -0.081732 0.116182 -0.102234
v -0.081732 0.195654 -0.210502
v -0.081732 0.040322 -0.221551
v -0.081732 0.258301 -0.090138
v -0.081732 0.350985 -0.199453
v -0.081732 0.195654 -0.210502
v -0.081732 0.116182 -0.102234
v 0.000000 0.003720 -0.173433
v 0.000000 0.055107 -0.078903
v -0.081732 0.116182 -0.102234
v -0.081732 0.040322 -0.221551
v 0.000000 0.003720 -0.173433
v -0.081732 0.258301 -0.090138
v -0.004175 0.311985 -0.070727
v -0.081732 0.350985 -0.199453
v -0.081732 0.195654 -0.210502
v -0.081732 0.127556 -0.350548
v -0.081732 0.040322 -0.221551
v 0.000000 0.055107 -0.078903
v 0.000000 0.003720 -0.173433
v 0.081732 0.116182 -0.102234
v -0.004175 0.311985 -0.070727
v -0.022859 0.340175 -0.133319
v -0.081732 0.350985 -0.199453
v -0.081732 0.195654 -0.210502
v -0.081732 0.282466 -0.343974
v -0.081732 0.127556 -0.350548
v -0.081732 0.195654 -0.210502
v -0.081732 0.350985 -0.199453
v -0.081732 0.282466 -0.343974
v -0.081732 0.040322 -0.221551
v 0.000000 0.010900 -0.274366
v 0.000000 0.003720 -0.173433
v -0.081732 0.040322 -0.221551
v -0.081732 0.127556 -0.350548
v 0.000000 0.010900 -0.274366
v 0.081732 0.116182 -0.102234
v 0.081732 0.195654 -0.210502
v 0.081732 0.189999 -0.105440
v -0.022859 0.340175 -0.133319
v -0.024902 0.362944 -0.170747
v -0.081732 0.350985 -0.199453
v -0.081732 0.282466 -0.343974
v 0.000000 0.158584 -0.402436
v -0.081732 0.127556 -0.350548
v 0.000000 0.003720 -0.173433
v 0.000000 0.010900 -0.274366
v 0.081732 0.040322 -0.221551
v 0.081732 0.116182 -0.102234
v 0.081732 0.040322 -0.221551
v 0.081732 0.195654 -0.210502
v 0.081732 0.116182 -0.102234
v 0.000000 0.003720 -0.173433
v 0.081732 0.040322 -0.221551
v 0.081732 0.189999 -0.105440
v 0.081732 0.195654 -0.210502
v 0.081732 0.258301 -0.090138
v -0.024902 0.362944 -0.170747
v 0.000000 0.384396 -0.204199
v -0.081732 0.350985 -0.199453
v -0.081732 0.282466 -0.343974
v -0.081732 0.350985 -0.199453
v 0.000000 0.343338 -0.338572
v 0.000000 0.158584 -0.402436
v 0.000000 0.067584 -0.358186
v -0.081732 0.127556 -0.350548
v -0.081732 0.127556 -0.350548
v 0.000000 0.067584 -0.358186
v 0.000000 0.010900 -0.274366
v 0.081732 0.040322 -0.221551
v 0.081732 0.127556 -0.350548
v 0.081732 0.195654 -0.210502
v 0.000000 0.010900 -0.274366
v 0.000000 0.067584 -0.358186
v 0.081732 0.127556 -0.350548
v 0.000000 0.067584 -0.358186
v 0.000000 0.158584 -0.402436
v 0.081732 0.127556 -0.350548
v 0.000000 0.010900 -0.274366
v 0.081732 0.127556 -0.350548
v 0.081732 0.040322 -0.221551
v 0.081732 0.258301 -0.090138
v 0.081732 0.195654 -0.210502
v 0.081732 0.350985 -0.199453
v 0.000000 0.384396 -0.204199
v 0.000000 0.387587 -0.247572
v -0.081732 0.350985 -0.199453
v 0.000000 0.387587 -0.247572
v 0.000000 0.343338 -0.338572
v -0.081732 0.350985 -0.199453
v 0.000000 0.387587 -0.247572
v 0.000000 0.384396 -0.204199
v 0.081732 0.350985 -0.199453
v 0.000000 0.387587 -0.247572
v 0.081732 0.350985 -0.199453
v 0.000000 0.343338 -0.338572
v -0.081732 0.282466 -0.343974
v 0.000000 0.343338 -0.338572
v 0.000000 0.259517 -0.395256
v -0.081732 0.282466 -0.343974
v 0.000000 0.259517 -0.395256
v 0.000000 0.158584 -0.402436
v 0.081732 0.127556 -0.350548
v 0.081732 0.282466 -0.343974
v 0.081732 0.195654 -0.210502
v 0.081732 0.282466 -0.343974
v 0.081732 0.350985 -0.199453
v 0.081732 0.195654 -0.210502
v 0.081732 0.282466 -0.343974
v 0.000000 0.343338 -0.338572
v 0.081732 0.350985 -0.199453
v 0.081732 0.282466 -0.343974
v 0.000000 0.259517 -0.395256
v 0.000000 0.343338 -0.338572
v 0.081732 0.282466 -0.343974
v 0.081732 0.127556 -0.350548
v 0.000000 0.158584 -0.402436
v 0.000000 0.158584 -0.402436
v 0.000000 0.259517 -0.395256
v 0.081732 0.282466 -0.343974
v 0.081732 0.258301 -0.090138
v 0.081732 0.350985 -0.199453
v 0.004175 0.311985 -0.070727
v 0.000000 0.384396 -0.204199
v 0.024902 0.362944 -0.170747
v 0.081732 0.350985 -0.199453
v 0.004175 0.311985 -0.070727
v 0.081732 0.350985 -0.199453
v 0.022859 0.340175 -0.133319
v 0.022859 0.340175 -0.133319
v 0.081732 0.350985 -0.199453
v 0.024902 0.362944 -0.170747
vt 0.004952 0.153241
vt 0.004952 0.195649
vt 0.042748 0.162580
vt 0.111554 0.193179
vt 0.004952 0.250076
vt 0.079759 0.238733
vt 0.069834 0.290188
vt 0.144775 0.223274
vt 0.004952 0.305259
vt 0.135202 0.284556
vt 0.070336 0.333864
vt 0.128677 0.335865
vt 0.172326 0.308144
vt 0.170723 0.264675
vt 0.004952 0.353862
vt 0.172326 0.341599
vt 0.056887 0.377228
vt 0.099583 0.370178
vt 0.004952 0.423015
vt 0.146321 0.385109
vt 0.063524 0.456855
vt 0.061386 0.408484
vt 0.102066 0.395556
vt 0.172326 0.377383
vt 0.004952 0.483521
vt 0.113259 0.440627
vt 0.182482 0.410930
vt 0.061831 0.478459
vt 0.160645 0.430914
vt 0.123573 0.458625
vt 0.423195 0.444526
vt 0.458878 0.454288
vt 0.408119 0.409652
vt 0.488459 0.429378
vt 0.434149 0.405545
vt 0.437932 0.405545
vt 0.493356 0.459309
vt 0.484569 0.408227
vt 0.483606 0.385772
vt 0.522221 0.410280
vt 0.458878 0.362621
vt 0.494988 0.363741
vt 0.426039 0.372940
vt 0.854270 0.593728
vt 0.878666 0.643168
vt 0.874433 0.533536
vt 0.900195 0.601474
vt 0.893193 0.719749
vt 0.884387 0.503257
vt 0.909164 0.680863
vt 0.914439 0.536467
vt 0.917364 0.480110
vt 0.919549 0.730035
vt 0.937467 0.529742
vt 0.940023 0.480110
vt 0.919818 0.606852
vt 0.925084 0.714444
vt 0.958527 0.503272
vt 0.939227 0.613367
vt 0.930923 0.726695
vt 0.924196 0.681162
vt 0.962960 0.613241
vt 0.977133 0.546737
vt 0.944396 0.728698
vt 0.940618 0.714279
vt 0.931455 0.708675
vt 0.989908 0.645668
vt 0.936262 0.685065
vt 0.981335 0.706853
vt 0.994028 0.587147
vt 0.953212 0.695159
vt 0.995372 0.735262
vt 0.995372 0.843128
vt 0.969415 0.740229
vt 0.969415 0.842514
vt 0.988546 0.876321
vt 0.934209 0.737139
vt 0.963000 0.927821
vt 0.964447 0.874543
vt 0.935837 0.815661
vt 0.894638 0.908089
vt 0.950542 0.878141
vt 0.873499 0.749553
vt 0.867211 0.989471
vt 0.805728 0.947658
vt 0.911803 0.937486
vt 0.823579 0.792354
vt 0.815737 0.963242
vt 0.708972 0.951729
vt 0.788182 0.762883
vt 0.765004 0.989069
vt 0.684541 0.854728
vt 0.706060 0.971134
vt 0.559092 0.876219
vt 0.604737 0.858385
vt 0.687793 0.773946
vt 0.663095 0.985347
vt 0.498148 0.839915
vt 0.543179 0.833124
vt 0.676940 0.955458
vt 0.499705 0.868935
vt 0.496017 0.813655
vt 0.622666 0.997053
vt 0.600425 0.943722
vt 0.493254 0.897986
vt 0.531824 0.960206
vt 0.749929 0.524307
vt 0.701498 0.532764
vt 0.776684 0.541764
vt 0.655901 0.509694
vt 0.612309 0.551465
vt 0.678904 0.634218
vt 0.749685 0.643400
vt 0.708606 0.730773
vt 0.755942 0.730773
vt 0.564671 0.518820
vt 0.566582 0.570156
vt 0.631531 0.730773
vt 0.815796 0.582338
vt 0.802224 0.713362
vt 0.564953 0.607164
vt 0.598561 0.652042
vt 0.829375 0.525996
vt 0.795478 0.677993
vt 0.583476 0.727848
vt 0.554225 0.663611
vt 0.802638 0.705997
vt 0.809007 0.610509
vt 0.557377 0.727444
vt 0.618851 0.467016
vt 0.632964 0.363520
vt 0.546636 0.430232
vt 0.651240 0.274086
vt 0.572464 0.280234
vt 0.543304 0.385580
vt 0.577225 0.205243
vt 0.513227 0.340935
vt 0.647834 0.186044
vt 0.473154 0.317778
vt 0.678378 0.064533
vt 0.585759 0.130737
vt 0.438252 0.250097
vt 0.635588 0.033596
vt 0.485377 0.146786
vt 0.491273 0.195798
vt 0.405970 0.354617
vt 0.554373 0.014591
vt 0.490582 0.035218
vt 0.363242 0.217066
vt 0.400297 0.055246
vt 0.481605 -0.002448
vt 0.276734 0.280832
vt 0.337624 0.311311
vt 0.357552 0.036362
vt 0.275867 0.091728
vt 0.337192 -0.000833
vt 0.283491 0.390154
vt 0.368886 0.420520
vt 0.336021 0.121377
vt 0.282181 0.183998
vt 0.235174 0.084030
vt 0.341274 0.466366
vt 0.198453 0.156285
vt 0.234732 0.416161
vt 0.282944 0.437639
vt 0.416988 0.541412
vt 0.387044 0.474262
vt 0.200562 0.349966
vt 0.467073 0.482935
vt 0.190829 0.257151
vt 0.171384 0.448531
vt 0.266403 0.496668
vt 0.419846 0.604205
vt 0.475201 0.579787
vt 0.491621 0.517381
vt 0.221854 0.556260
vt 0.321666 0.572916
vt 0.490750 0.628906
vt 0.087136 0.504078
vt 0.142890 0.614634
vt 0.234864 0.626008
vt 0.333086 0.619843
vt 0.508849 0.542308
vt 0.443155 0.708122
vt 0.525624 0.667697
vt 0.008220 0.646377
vt 0.132839 0.668932
vt 0.241568 0.675585
vt 0.343913 0.669355
vt 0.523316 0.617999
vt 0.509030 0.567598
vt 0.521802 0.556636
vt 0.032205 0.578192
vt 0.427978 0.649868
vt 0.357946 0.733284
vt 0.511536 0.734670
vt 0.005360 0.735087
vt 0.128818 0.741212
vt 0.534423 0.580401
vt 0.237485 0.743204
vt 0.538408 0.638039
vt 0.373875 0.803414
vt 0.471409 0.767689
vt 0.003608 0.819083
vt 0.145844 0.820158
vt 0.261249 0.814057
vt 0.454992 0.822781
vt 0.021859 0.900169
vt 0.263358 0.888561
vt 0.389202 0.870359
vt 0.137325 0.886553
vt 0.383060 0.902102
vt 0.061578 0.980031
vt 0.269300 0.945724
vt 0.131996 0.981756
vt 0.182464 0.969345
vt 0.191313 0.106974
vt 0.139187 0.101677
vt 0.127726 0.132193
vt 0.103447 0.122778
vt 0.133787 0.069501
vt 0.114285 0.076861
vt 0.111739 0.181239
vt 0.191313 0.093289
vt 0.146842 0.022385
vt 0.048088 0.100352
vt 0.158880 0.189838
vt 0.110547 0.015749
vt 0.035210 0.133372
vt 0.038357 0.074920
vt 0.673584 0.286698
vt 0.778273 0.286156
vt 0.670003 0.214835
vt 0.661283 0.355358
vt 0.778273 0.143708
vt 0.777532 0.419687
vt 0.755038 0.058622
vt 0.658965 0.082826
vt 0.631797 0.467016
vt 0.906166 0.214478
vt 0.702409 0.479849
vt 0.912800 0.347889
vt 0.849194 0.067765
vt 0.761012 0.494818
vt 0.997293 0.240626
vt 0.817385 0.518193
vt 0.960787 0.409245
vt 0.942302 0.123331
vt 0.865259 0.499718
vt 0.995069 0.333324
g kakureon_kakureon_s_kakureondoll.png
usemtl s_kakureondoll.png
s off
f 1/1 2/2 3/3
f 4/2 5/4 6/3
f 7/2 8/5 9/6
f 10/2 11/6 12/4
f 13/5 14/7 15/6
f 16/4 17/6 18/8
f 19/5 20/9 21/7
f 22/6 23/7 24/10
f 25/6 26/10 27/8
f 28/9 29/11 30/7
f 31/10 32/12 33/13
f 34/7 35/11 36/12
f 37/7 38/12 39/10
f 40/8 41/10 42/14
f 43/14 44/10 45/13
f 46/9 47/15 48/11
f 49/12 50/16 51/13
f 52/15 53/17 54/11
f 55/12 56/18 57/16
f 58/11 59/17 60/18
f 61/11 62/18 63/12
f 64/15 65/19 66/17
f 67/16 68/18 69/20
f 70/19 71/21 72/22
f 73/17 74/23 75/18
f 76/22 77/17 78/19
f 79/22 80/21 81/23
f 82/22 83/23 84/17
f 85/18 86/23 87/20
f 88/16 89/20 90/24
f 91/19 92/25 93/21
f 94/23 95/26 96/20
f 97/23 98/21 99/26
f 100/24 101/20 102/27
f 103/25 104/28 105/21
f 106/21 107/28 108/26
f 109/20 110/26 111/29
f 112/20 113/29 114/27
f 115/28 116/30 117/26
f 118/26 119/30 120/29
f 121/31 122/32 123/33
f 124/32 125/34 126/35
f 127/33 128/35 129/36
f 130/32 131/37 132/34
f 133/32 134/35 135/33
f 136/36 137/38 138/39
f 139/35 140/34 141/38
f 142/35 143/38 144/36
f 145/37 146/40 147/34
f 148/38 149/40 150/39
f 151/38 152/34 153/40
f 154/33 155/36 156/41
f 157/36 158/39 159/41
f 160/40 161/42 162/39
f 163/39 164/42 165/41
f 166/33 167/41 168/43
f 169/44 170/45 171/46
f 172/45 173/47 174/46
f 175/45 176/48 177/47
f 178/46 179/47 180/49
f 181/48 182/50 183/47
f 184/49 185/51 186/52
f 187/49 188/47 189/51
f 190/48 191/53 192/50
f 193/52 194/54 195/55
f 196/52 197/51 198/54
f 199/47 200/56 201/51
f 202/47 203/50 204/56
f 205/53 206/57 207/50
f 208/55 209/54 210/58
f 211/51 212/59 213/54
f 214/54 215/59 216/58
f 217/51 218/56 219/59
f 220/53 221/60 222/57
f 223/50 224/61 225/56
f 226/56 227/61 228/59
f 229/50 230/57 231/61
f 232/58 233/62 234/63
f 235/58 236/59 237/62
f 238/60 239/64 240/65
f 241/57 242/66 243/61
f 244/60 245/66 246/57
f 247/60 248/65 249/66
f 250/63 251/62 252/67
f 253/59 254/61 255/68
f 256/66 257/65 258/68
f 259/66 260/68 261/61
f 262/59 263/68 264/62
f 265/64 266/69 267/65
f 268/63 269/67 270/70
f 271/68 272/71 273/62
f 274/71 275/69 276/67
f 277/71 278/68 279/65
f 280/71 281/67 282/62
f 283/71 284/65 285/69
f 286/72 287/73 288/74
f 289/73 290/75 291/74
f 292/73 293/76 294/75
f 295/74 296/75 297/77
f 298/76 299/78 300/79
f 301/76 302/79 303/75
f 304/77 305/75 306/80
f 307/75 308/79 309/80
f 310/78 311/81 312/82
f 313/79 314/78 315/82
f 316/79 317/82 318/80
f 319/77 320/80 321/83
f 322/81 323/84 324/85
f 325/78 326/86 327/81
f 328/86 329/84 330/81
f 331/82 332/87 333/80
f 334/81 335/85 336/87
f 337/81 338/87 339/82
f 340/80 341/87 342/83
f 343/84 344/88 345/85
f 346/87 347/85 348/89
f 349/83 350/87 351/90
f 352/88 353/91 354/85
f 355/85 356/91 357/89
f 358/87 359/89 360/92
f 361/87 362/92 363/90
f 364/91 365/93 366/89
f 367/92 368/94 369/95
f 370/90 371/92 372/96
f 373/96 374/92 375/95
f 376/93 377/97 378/89
f 379/94 380/98 381/99
f 382/95 383/94 384/99
f 385/92 386/100 387/94
f 388/89 389/97 390/100
f 391/89 392/100 393/92
f 394/98 395/94 396/101
f 397/99 398/98 399/102
f 400/97 401/103 402/104
f 403/100 404/97 405/104
f 406/100 407/104 408/94
f 409/101 410/94 411/105
f 412/98 413/94 414/99
f 415/98 416/99 417/102
f 418/98 419/101 420/94
f 421/103 422/106 423/104
f 424/106 425/94 426/104
f 427/94 428/106 429/105
f 430/99 431/94 432/95
f 433/101 434/105 435/94
f 436/95 437/94 438/92
f 439/105 440/106 441/94
f 442/95 443/92 444/96
f 445/106 446/104 447/94
f 448/92 449/89 450/87
f 451/96 452/92 453/90
f 454/106 455/103 456/104
f 457/94 458/100 459/92
f 460/92 461/100 462/89
f 463/92 464/87 465/90
f 466/94 467/104 468/100
f 469/103 470/97 471/104
f 472/100 473/97 474/89
f 475/100 476/104 477/97
f 478/87 479/89 480/85
f 481/90 482/87 483/83
f 484/97 485/93 486/89
f 487/85 488/84 489/81
f 490/87 491/85 492/81
f 493/83 494/87 495/80
f 496/93 497/91 498/89
f 499/89 500/91 501/85
f 502/84 503/86 504/81
f 505/83 506/80 507/77
f 508/87 509/82 510/80
f 511/87 512/81 513/82
f 514/91 515/88 516/85
f 517/85 518/88 519/84
f 520/86 521/78 522/81
f 523/81 524/78 525/82
f 526/77 527/80 528/75
f 529/78 530/76 531/79
f 532/79 533/82 534/78
f 535/79 536/80 537/82
f 538/79 539/76 540/75
f 541/79 542/75 543/80
f 544/77 545/75 546/74
f 547/76 548/73 549/75
f 550/75 551/73 552/74
f 553/73 554/72 555/74
f 556/107 557/108 558/109
f 559/108 560/110 561/111
f 562/109 563/112 564/113
f 565/108 566/111 567/112
f 568/108 569/112 570/109
f 571/113 572/114 573/115
f 574/111 575/116 576/117
f 577/112 578/118 579/114
f 580/109 581/113 582/119
f 583/115 584/120 585/113
f 586/111 587/121 588/122
f 589/112 590/114 591/113
f 592/112 593/122 594/118
f 595/111 596/117 597/121
f 598/111 599/122 600/112
f 601/109 602/119 603/123
f 604/115 605/114 606/113
f 607/115 608/113 609/120
f 610/113 611/120 612/124
f 613/113 614/124 615/119
f 616/118 617/122 618/125
f 619/121 620/126 621/122
f 622/122 623/126 624/125
f 625/114 626/118 627/112
f 628/114 629/112 630/113
f 631/120 632/127 633/124
f 634/119 635/124 636/128
f 637/126 638/129 639/125
f 640/118 641/125 642/122
f 643/118 644/122 645/112
f 646/113 647/124 648/120
f 649/120 650/124 651/127
f 652/129 653/126 654/125
f 655/125 656/126 657/122
f 658/112 659/111 660/108
f 661/113 662/112 663/109
f 664/112 665/122 666/111
f 667/112 668/108 669/109
f 670/124 671/113 672/119
f 673/113 674/109 675/119
f 676/126 677/121 678/122
f 679/122 680/121 681/111
f 682/108 683/107 684/109
f 685/124 686/119 687/128
f 688/121 689/117 690/111
f 691/108 692/111 693/110
f 694/109 695/123 696/119
f 697/117 698/116 699/111
f 700/130 701/131 702/132
f 703/131 704/133 705/134
f 706/132 707/131 708/135
f 709/131 710/134 711/135
f 712/133 713/136 714/134
f 715/135 716/134 717/137
f 718/133 719/138 720/136
f 721/134 722/139 723/137
f 724/138 725/140 726/141
f 727/138 728/141 729/136
f 730/134 731/136 732/142
f 733/134 734/142 735/139
f 736/140 737/143 738/141
f 739/136 740/144 741/145
f 742/136 743/145 744/142
f 745/136 746/141 747/144
f 748/139 749/142 750/146
f 751/140 752/138 753/141
f 754/140 755/141 756/143
f 757/141 758/143 759/147
f 760/143 761/141 762/147
f 763/144 764/141 765/148
f 766/141 767/147 768/148
f 769/142 770/149 771/146
f 772/138 773/133 774/136
f 775/138 776/136 777/141
f 778/144 779/148 780/150
f 781/147 782/151 783/148
f 784/149 785/152 786/153
f 787/146 788/149 789/153
f 790/133 791/134 792/136
f 793/141 794/144 795/148
f 796/141 797/148 798/147
f 799/147 800/148 801/151
f 802/141 803/136 804/144
f 805/150 806/154 807/155
f 808/148 809/151 810/156
f 811/154 812/150 813/148
f 814/154 815/156 816/155
f 817/154 818/148 819/156
f 820/151 821/148 822/156
f 823/152 824/157 825/153
f 826/146 827/153 828/158
f 829/153 830/157 831/158
f 832/149 833/159 834/160
f 835/159 836/150 837/155
f 838/159 839/155 840/160
f 841/149 842/160 843/152
f 844/133 845/131 846/134
f 847/136 848/145 849/144
f 850/148 851/144 852/150
f 853/156 854/161 855/155
f 856/157 857/162 858/158
f 859/160 860/155 861/163
f 862/155 863/161 864/163
f 865/160 866/163 867/152
f 868/131 869/135 870/134
f 871/136 872/142 873/145
f 874/136 875/134 876/142
f 877/148 878/150 879/154
f 880/148 881/154 882/156
f 883/157 884/164 885/165
f 886/162 887/166 888/167
f 889/161 890/155 891/163
f 892/156 893/154 894/155
f 895/154 896/150 897/155
f 898/156 899/155 900/161
f 901/152 902/168 903/157
f 904/157 905/168 906/164
f 907/157 908/165 909/162
f 910/131 911/132 912/135
f 913/134 914/137 915/139
f 916/134 917/139 918/142
f 919/134 920/135 921/137
f 922/166 923/169 924/167
f 925/163 926/170 927/152
f 928/152 929/170 930/168
f 931/150 932/159 933/155
f 934/164 935/171 936/172
f 937/165 938/172 939/162
f 940/165 941/164 942/172
f 943/131 944/130 945/132
f 946/139 947/146 948/142
f 949/166 950/173 951/174
f 952/169 953/166 954/175
f 955/163 956/152 957/170
f 958/170 959/152 960/168
f 961/159 962/149 963/160
f 964/160 965/155 966/159
f 967/160 968/163 969/155
f 970/160 971/149 972/152
f 973/160 974/152 975/163
f 976/142 977/146 978/149
f 979/171 980/176 981/172
f 982/162 983/177 984/166
f 985/166 986/177 987/173
f 988/172 989/176 990/177
f 991/172 992/177 993/162
f 994/166 995/174 996/175
f 997/164 998/172 999/171
f 1000/168 1001/157 1002/164
f 1003/168 1004/152 1005/157
f 1006/146 1007/153 1008/149
f 1009/152 1010/153 1011/157
f 1012/152 1013/149 1014/153
f 1015/173 1016/178 1017/174
f 1018/176 1019/179 1020/180
f 1021/177 1022/181 1023/182
f 1024/176 1025/171 1026/179
f 1027/176 1028/180 1029/181
f 1030/177 1031/182 1032/173
f 1033/177 1034/176 1035/181
f 1036/175 1037/174 1038/183
f 1039/172 1040/176 1041/171
f 1042/171 1043/176 1044/179
f 1045/164 1046/165 1047/172
f 1048/164 1049/157 1050/165
f 1051/146 1052/158 1053/153
f 1054/153 1055/158 1056/157
f 1057/178 1058/184 1059/185
f 1060/180 1061/186 1062/187
f 1063/182 1064/188 1065/189
f 1066/181 1067/187 1068/188
f 1069/181 1070/180 1071/187
f 1072/182 1073/189 1074/173
f 1075/182 1076/181 1077/188
f 1078/174 1079/178 1080/190
f 1081/183 1082/191 1083/192
f 1084/174 1085/191 1086/183
f 1087/174 1088/190 1089/191
f 1090/176 1091/172 1092/177
f 1093/179 1094/193 1095/180
f 1096/180 1097/193 1098/186
f 1099/165 1100/162 1101/172
f 1102/157 1103/158 1104/162
f 1105/157 1106/162 1107/165
f 1108/172 1109/162 1110/177
f 1111/184 1112/194 1113/195
f 1114/194 1115/173 1116/189
f 1117/194 1118/184 1119/178
f 1120/194 1121/189 1122/195
f 1123/194 1124/178 1125/173
f 1126/185 1127/184 1128/196
f 1129/187 1130/197 1131/198
f 1132/187 1133/198 1134/188
f 1135/187 1136/186 1137/197
f 1138/192 1139/191 1140/199
f 1141/191 1142/190 1143/199
f 1144/176 1145/180 1146/179
f 1147/193 1148/179 1149/180
f 1150/193 1151/180 1152/186
f 1153/162 1154/167 1155/166
f 1156/162 1157/166 1158/177
f 1159/189 1160/200 1161/195
f 1162/188 1163/198 1164/200
f 1165/188 1166/200 1167/189
f 1168/178 1169/185 1170/201
f 1171/201 1172/199 1173/190
f 1174/190 1175/178 1176/201
f 1177/184 1178/202 1179/203
f 1180/184 1181/203 1182/196
f 1183/184 1184/195 1185/202
f 1186/197 1187/204 1188/198
f 1189/192 1190/191 1191/183
f 1192/192 1193/199 1194/191
f 1195/176 1196/181 1197/180
f 1198/176 1199/177 1200/181
f 1201/186 1202/180 1203/187
f 1204/180 1205/181 1206/187
f 1207/186 1208/187 1209/197
f 1210/167 1211/169 1212/166
f 1213/200 1214/205 1215/206
f 1216/200 1217/206 1218/195
f 1219/198 1220/204 1221/205
f 1222/198 1223/205 1224/200
f 1225/195 1226/206 1227/202
f 1228/203 1229/202 1230/207
f 1231/203 1232/207 1233/196
f 1234/183 1235/174 1236/175
f 1237/175 1238/166 1239/169
f 1240/175 1241/174 1242/166
f 1243/183 1244/191 1245/174
f 1246/199 1247/201 1248/190
f 1249/191 1250/199 1251/190
f 1252/191 1253/190 1254/174
f 1255/177 1256/182 1257/181
f 1258/187 1259/198 1260/197
f 1261/197 1262/198 1263/204
f 1264/205 1265/204 1266/208
f 1267/206 1268/205 1269/209
f 1270/206 1271/209 1272/202
f 1273/207 1274/202 1275/210
f 1276/202 1277/209 1278/210
f 1279/166 1280/174 1281/173
f 1282/177 1283/166 1284/173
f 1285/177 1286/173 1287/182
f 1288/201 1289/185 1290/178
f 1291/174 1292/190 1293/178
f 1294/190 1295/201 1296/178
f 1297/174 1298/178 1299/173
f 1300/181 1301/188 1302/187
f 1303/187 1304/188 1305/198
f 1306/181 1307/182 1308/188
f 1309/204 1310/205 1311/208
f 1312/204 1313/198 1314/205
f 1315/205 1316/211 1317/209
f 1318/205 1319/208 1320/211
f 1321/207 1322/210 1323/212
f 1324/210 1325/209 1326/212
f 1327/185 1328/196 1329/184
f 1330/185 1331/184 1332/178
f 1333/173 1334/194 1335/189
f 1336/173 1337/189 1338/182
f 1339/178 1340/184 1341/194
f 1342/178 1343/194 1344/173
f 1345/182 1346/189 1347/188
f 1348/198 1349/188 1350/200
f 1351/188 1352/189 1353/200
f 1354/198 1355/200 1356/205
f 1357/208 1358/213 1359/211
f 1360/209 1361/211 1362/214
f 1363/209 1364/214 1365/212
f 1366/196 1367/207 1368/203
f 1369/196 1370/203 1371/184
f 1372/194 1373/184 1374/195
f 1375/189 1376/195 1377/200
f 1378/189 1379/194 1380/195
f 1381/205 1382/200 1383/206
f 1384/200 1385/195 1386/206
f 1387/208 1388/211 1389/213
f 1390/208 1391/205 1392/211
f 1393/211 1394/215 1395/216
f 1396/211 1397/216 1398/214
f 1399/211 1400/213 1401/215
f 1402/207 1403/202 1404/203
f 1405/195 1406/184 1407/202
f 1408/184 1409/203 1410/202
f 1411/195 1412/202 1413/206
f 1414/205 1415/206 1416/209
f 1417/206 1418/202 1419/209
f 1420/205 1421/209 1422/211
f 1423/213 1424/211 1425/215
f 1426/207 1427/210 1428/202
f 1429/202 1430/210 1431/209
f 1432/211 1433/216 1434/215
f 1435/207 1436/212 1437/210
f 1438/210 1439/212 1440/209
f 1441/211 1442/209 1443/214
f 1444/214 1445/216 1446/211
f 1447/214 1448/209 1449/212
f 1450/217 1451/218 1452/219
f 1453/218 1454/220 1455/219
f 1456/218 1457/221 1458/222
f 1459/220 1460/223 1461/219
f 1462/218 1463/224 1464/221
f 1465/222 1466/221 1467/225
f 1468/220 1469/218 1470/226
f 1471/218 1472/222 1473/226
f 1474/220 1475/226 1476/223
f 1477/219 1478/223 1479/227
f 1480/225 1481/228 1482/222
f 1483/222 1484/228 1485/226
f 1486/223 1487/226 1488/220
f 1489/228 1490/222 1491/226
f 1492/226 1493/229 1494/223
f 1495/220 1496/226 1497/218
f 1498/228 1499/225 1500/222
f 1501/226 1502/228 1503/230
f 1504/223 1505/220 1506/227
f 1507/226 1508/222 1509/218
f 1510/225 1511/221 1512/222
f 1513/222 1514/221 1515/218
f 1516/228 1517/226 1518/230
f 1519/223 1520/229 1521/226
f 1522/220 1523/218 1524/219
f 1525/220 1526/219 1527/227
f 1528/221 1529/224 1530/218
f 1531/219 1532/218 1533/217
f 1534/1 1535/3 1536/2
f 1537/3 1538/4 1539/2
f 1540/4 1541/8 1542/6
f 1543/4 1544/6 1545/2
f 1546/8 1547/14 1548/10
f 1549/8 1550/10 1551/6
f 1552/2 1553/6 1554/5
f 1555/14 1556/13 1557/10
f 1558/6 1559/7 1560/5
f 1561/6 1562/10 1563/7
f 1564/13 1565/12 1566/10
f 1567/10 1568/12 1569/7
f 1570/5 1571/7 1572/9
f 1573/13 1574/16 1575/12
f 1576/7 1577/11 1578/9
f 1579/7 1580/12 1581/11
f 1582/16 1583/20 1584/18
f 1585/12 1586/16 1587/18
f 1588/12 1589/18 1590/11
f 1591/9 1592/11 1593/15
f 1594/20 1595/26 1596/23
f 1597/16 1598/24 1599/20
f 1600/18 1601/23 1602/17
f 1603/18 1604/17 1605/11
f 1606/11 1607/17 1608/15
f 1609/18 1610/20 1611/23
f 1612/26 1613/30 1614/28
f 1615/24 1616/27 1617/20
f 1618/17 1619/19 1620/15
f 1621/23 1622/21 1623/22
f 1624/22 1625/17 1626/23
f 1627/22 1628/21 1629/19
f 1630/22 1631/19 1632/17
f 1633/23 1634/26 1635/21
f 1636/30 1637/26 1638/29
f 1639/29 1640/20 1641/27
f 1642/26 1643/28 1644/21
f 1645/26 1646/20 1647/29
f 1648/19 1649/21 1650/25
f 1651/25 1652/21 1653/28
f 1654/31 1655/33 1656/32
f 1657/33 1658/36 1659/35
f 1660/32 1661/35 1662/34
f 1663/33 1664/41 1665/36
f 1666/32 1667/34 1668/37
f 1669/32 1670/33 1671/35
f 1672/41 1673/42 1674/39
f 1675/36 1676/39 1677/38
f 1678/36 1679/38 1680/35
f 1681/35 1682/38 1683/34
f 1684/36 1685/41 1686/39
f 1687/37 1688/34 1689/40
f 1690/40 1691/39 1692/42
f 1693/40 1694/38 1695/39
f 1696/38 1697/40 1698/34
f 1699/33 1700/43 1701/41
f 1702/44 1703/46 1704/45
f 1705/46 1706/49 1707/47
f 1708/46 1709/47 1710/45
f 1711/49 1712/52 1713/51
f 1714/49 1715/51 1716/47
f 1717/45 1718/47 1719/48
f 1720/52 1721/55 1722/54
f 1723/52 1724/54 1725/51
f 1726/47 1727/51 1728/56
f 1729/48 1730/47 1731/50
f 1732/47 1733/56 1734/50
f 1735/55 1736/58 1737/54
f 1738/51 1739/54 1740/59
f 1741/54 1742/58 1743/59
f 1744/51 1745/59 1746/56
f 1747/48 1748/50 1749/53
f 1750/58 1751/63 1752/62
f 1753/58 1754/62 1755/59
f 1756/56 1757/61 1758/50
f 1759/56 1760/59 1761/61
f 1762/53 1763/50 1764/57
f 1765/50 1766/61 1767/57
f 1768/63 1769/67 1770/62
f 1771/59 1772/68 1773/61
f 1774/59 1775/62 1776/68
f 1777/53 1778/57 1779/60
f 1780/63 1781/70 1782/67
f 1783/61 1784/66 1785/57
f 1786/57 1787/66 1788/60
f 1789/61 1790/68 1791/66
f 1792/62 1793/71 1794/68
f 1795/62 1796/67 1797/71
f 1798/60 1799/65 1800/64
f 1801/68 1802/65 1803/66
f 1804/66 1805/65 1806/60
f 1807/68 1808/71 1809/65
f 1810/67 1811/69 1812/71
f 1813/69 1814/64 1815/65
f 1816/65 1817/71 1818/69
f 1819/217 1820/219 1821/218
f 1822/219 1823/220 1824/218
f 1825/219 1826/227 1827/223
f 1828/219 1829/223 1830/220
f 1831/218 1832/222 1833/221
f 1834/223 1835/220 1836/226
f 1837/220 1838/226 1839/218
f 1840/220 1841/223 1842/226
f 1843/222 1844/225 1845/221
f 1846/220 1847/218 1848/226
f 1849/218 1850/221 1851/224
f 1852/218 1853/226 1854/222
f 1855/223 1856/229 1857/226
f 1858/225 1859/222 1860/228
f 1861/222 1862/226 1863/228
f 1864/220 1865/223 1866/227
f 1867/218 1868/222 1869/226
f 1870/226 1871/230 1872/228
f 1873/220 1874/219 1875/218
f 1876/220 1877/227 1878/219
f 1879/223 1880/226 1881/229
f 1882/222 1883/228 1884/226
f 1885/218 1886/221 1887/222
f 1888/219 1889/217 1890/218
f 1891/228 1892/222 1893/225
f 1894/225 1895/222 1896/221
f 1897/226 1898/228 1899/230
f 1900/218 1901/224 1902/221
f 1903/231 1904/232 1905/233
f 1906/231 1907/234 1908/232
f 1909/233 1910/232 1911/235
f 1912/234 1913/236 1914/232
f 1915/233 1916/237 1917/238
f 1918/233 1919/235 1920/237
f 1921/234 1922/239 1923/236
f 1924/232 1925/240 1926/235
f 1927/238 1928/237 1929/233
f 1930/239 1931/241 1932/236
f 1933/232 1934/242 1935/240
f 1936/232 1937/236 1938/242
f 1939/235 1940/243 1941/237
f 1942/235 1943/240 1944/243
f 1945/233 1946/232 1947/231
f 1948/241 1949/244 1950/236
f 1951/242 1952/245 1953/240
f 1954/237 1955/243 1956/235
f 1957/233 1958/235 1959/232
f 1960/233 1961/237 1962/235
f 1963/231 1964/232 1965/234
f 1966/244 1967/246 1968/236
f 1969/242 1970/236 1971/247
f 1972/245 1973/248 1974/240
f 1975/240 1976/248 1977/243
f 1978/235 1979/240 1980/232
f 1981/243 1982/248 1983/240
f 1984/248 1985/245 1986/240
f 1987/243 1988/240 1989/235
f 1990/234 1991/232 1992/236
f 1993/246 1994/249 1995/236
f 1996/249 1997/247 1998/236
f 1999/249 2000/246 2001/236
f 2002/249 2003/236 2004/247
f 2005/242 2006/247 2007/250
f 2008/242 2009/250 2010/245
f 2011/240 2012/242 2013/232
f 2014/242 2015/236 2016/232
f 2017/242 2018/247 2019/236
f 2020/242 2021/250 2022/247
f 2023/242 2024/240 2025/245
f 2026/245 2027/250 2028/242
f 2029/234 2030/236 2031/239
f 2032/246 2033/244 2034/236
f 2035/239 2036/236 2037/241
f 2038/241 2039/236 2040/244
o kakureondoll2
v 0.384935 -0.047401 -0.125073
v 0.327445 -0.047401 -0.237902
v -0.000000 -0.047401 -0.000000
v 0.327445 -0.047401 -0.237902
v 0.237902 -0.047401 -0.327445
v -0.000000 -0.047401 -0.000000
v 0.237902 -0.047401 -0.327445
v 0.125073 -0.047401 -0.384935
v -0.000000 -0.047401 -0.000000
v 0.125073 -0.047401 -0.384935
v -0.000000 -0.047401 -0.404744
v -0.000000 -0.047401 -0.000000
v -0.000000 -0.047401 -0.404744
v -0.125073 -0.047401 -0.384935
v -0.000000 -0.047401 -0.000000
v -0.125073 -0.047401 -0.384935
v -0.237902 -0.047401 -0.327445
v -0.000000 -0.047401 -0.000000
v -0.237902 -0.047401 -0.327445
v -0.327445 -0.047401 -0.237902
v -0.000000 -0.047401 -0.000000
v -0.327445 -0.047401 -0.237902
v -0.384935 -0.047401 -0.125073
v -0.000000 -0.047401 -0.000000
v -0.384935 -0.047401 -0.125073
v -0.404744 -0.047401 -0.000000
v -0.000000 -0.047401 -0.000000
v -0.404744 -0.047401 -0.000000
v -0.384935 -0.047401 0.125072
v -0.000000 -0.047401 -0.000000
v -0.384935 -0.047401 0.125072
v -0.327445 -0.047401 0.237902
v -0.000000 -0.047401 -0.000000
v -0.327445 -0.047401 0.237902
v -0.237902 -0.047401 0.327445
v -0.000000 -0.047401 -0.000000
v -0.237902 -0.047401 0.327445
v -0.125073 -0.047401 0.384934
v -0.000000 -0.047401 -0.000000
v -0.125073 -0.047401 0.384934
v -0.000000 -0.047401 0.404744
v -0.000000 -0.047401 -0.000000
v -0.000000 -0.047401 0.404744
v 0.125072 -0.047401 0.384934
v -0.000000 -0.047401 -0.000000
v 0.125072 -0.047401 0.384934
v 0.237902 -0.047401 0.327445
v -0.000000 -0.047401 -0.000000
v 0.237902 -0.047401 0.327445
v 0.327444 -0.047401 0.237902
v -0.000000 -0.047401 -0.000000
v 0.327444 -0.047401 0.237902
v 0.384934 -0.047401 0.125072
v -0.000000 -0.047401 -0.000000
v 0.384934 -0.047401 0.125072
v 0.404744 -0.047401 -0.000000
v -0.000000 -0.047401 -0.000000
v 0.404744 -0.047401 -0.000000
v 0.384935 -0.047401 -0.125073
v -0.000000 -0.047401 -0.000000
vt 0.552582 0.022847
vt 0.552582 0.726073
g kakureondoll2_kakureondoll2_shadow1.png.011
usemtl shadow1.png.011
s off
f 2041/251 2042/251 2043/252
f 2044/251 2045/251 2046/252
f 2047/251 2048/251 2049/252
f 2050/251 2051/251 2052/252
f 2053/251 2054/251 2055/252
f 2056/251 2057/251 2058/252
f 2059/251 2060/251 2061/252
f 2062/251 2063/251 2064/252
f 2065/251 2066/251 2067/252
f 2068/251 2069/251 2070/252
f 2071/251 2072/251 2073/252
f 2074/251 2075/251 2076/252
f 2077/251 2078/251 2079/252
f 2080/251 2081/251 2082/252
f 2083/251 2084/251 2085/252
f 2086/251 2087/251 2088/252
f 2089/251 2090/251 2091/252
f 2092/251 2093/251 2094/252
f 2095/251 2096/251 2097/252
f 2098/251 2099/251 2100/252
